{"glyphs":{"0":{"ha":490,"x_min":40,"x_max":450,"o":"m 245 1008 q 153 904 180 1008 q 126 517 126 800 q 153 128 126 233 q 245 24 180 24 q 338 127 311 24 q 364 517 364 230 q 338 906 364 803 q 245 1008 311 1008 m 245 1043 q 394 901 338 1043 q 450 517 450 758 q 394 133 450 275 q 245 -9 338 -9 q 97 133 153 -9 q 40 517 40 275 q 97 900 40 758 q 245 1043 154 1043 z "},"1":{"ha":332,"x_min":1,"x_max":300,"o":"m 300 0 l 50 0 l 164 47 l 139 876 l 1 810 l 235 1046 l 192 47 l 300 0 z "},"2":{"ha":436,"x_min":1,"x_max":410,"o":"m 410 0 l 1 0 q 248 508 191 351 q 306 787 306 665 q 282 951 306 894 q 214 1008 258 1008 q 123 921 165 1008 q 28 612 81 833 l 28 994 l 81 895 q 144 1008 111 972 q 221 1043 178 1043 q 339 971 292 1043 q 386 786 386 899 q 107 137 386 610 q 43 28 65 66 l 342 28 l 410 281 l 410 0 z "},"3":{"ha":479,"x_min":40,"x_max":449,"o":"m 40 46 l 40 424 q 132 114 85 208 q 240 20 178 20 q 335 105 294 20 q 375 317 375 191 q 342 486 375 428 q 245 543 309 543 l 187 543 l 143 452 l 143 656 l 187 570 l 235 570 q 322 630 292 570 q 351 808 351 690 q 323 962 351 907 q 243 1017 294 1017 q 152 957 189 1017 q 68 715 115 897 l 68 1047 l 113 939 q 169 1017 135 991 q 252 1043 203 1043 q 375 979 326 1043 q 424 815 424 914 q 393 673 424 737 q 300 558 361 609 q 412 469 374 528 q 449 321 449 409 q 384 89 449 186 q 235 -9 318 -9 q 154 28 192 -9 q 86 136 115 65 l 40 46 z "},"4":{"ha":461,"x_min":25,"x_max":433,"o":"m 433 400 l 390 493 l 335 484 l 335 52 l 408 0 l 240 0 l 273 473 l 25 431 l 106 982 l 29 1032 l 193 1032 l 68 519 l 278 519 l 315 1032 l 412 1032 l 335 982 l 335 519 l 390 519 l 433 606 l 433 400 z "},"5":{"ha":472,"x_min":33,"x_max":447,"o":"m 447 1032 l 370 828 l 370 1006 l 211 1006 l 123 575 q 179 601 151 592 q 232 610 208 610 q 385 533 324 610 q 446 336 446 456 q 381 92 446 193 q 232 -9 317 -9 q 146 31 186 -9 q 82 142 106 71 l 33 43 l 33 428 q 128 107 84 194 q 233 21 172 21 q 329 108 289 21 q 368 325 368 195 q 328 508 368 436 q 227 581 287 581 q 157 563 193 581 q 85 511 121 546 l 113 979 l 33 1032 l 447 1032 z "},"6":{"ha":519,"x_min":49,"x_max":485,"o":"m 265 575 q 162 516 201 575 q 122 358 122 456 q 166 114 122 210 q 275 18 211 18 q 370 101 330 18 q 410 309 410 184 q 369 501 410 427 q 265 575 329 575 m 457 1003 l 457 623 q 367 916 413 823 q 267 1008 321 1008 q 156 872 200 1008 q 111 514 111 736 q 112 485 111 505 q 113 456 113 465 q 172 567 133 530 q 271 603 211 603 q 426 524 366 603 q 485 317 485 446 q 458 163 485 237 q 380 36 431 90 q 332 1 360 14 q 277 -12 304 -12 q 113 129 178 -12 q 49 496 49 270 q 110 891 49 740 q 267 1043 172 1043 q 338 1007 304 1043 q 406 899 373 971 l 457 1003 z "},"7":{"ha":416,"x_min":17,"x_max":393,"o":"m 393 1032 l 201 53 l 275 0 l 96 0 l 363 1006 l 102 1006 l 17 640 l 17 1032 l 393 1032 z "},"8":{"ha":473,"x_min":32,"x_max":441,"o":"m 237 546 q 138 488 174 546 q 102 328 102 430 q 140 108 102 196 q 232 20 178 20 q 330 105 288 20 q 372 313 372 191 q 338 486 372 426 q 237 546 303 546 m 241 1017 q 157 963 186 1017 q 127 810 127 910 q 157 632 127 695 q 237 568 186 568 q 320 630 290 568 q 350 802 350 692 q 321 960 350 904 q 241 1017 293 1017 m 293 557 q 403 466 365 529 q 441 313 441 403 q 415 168 441 237 q 336 40 388 98 q 286 1 314 15 q 229 -12 258 -12 q 181 0 205 -12 q 138 32 156 12 q 59 161 87 87 q 32 314 32 235 q 71 471 32 408 q 183 559 109 534 q 89 663 120 601 q 58 810 58 725 q 109 978 58 912 q 239 1043 160 1043 q 369 980 319 1043 q 419 814 419 917 q 386 658 419 726 q 293 557 352 589 z "},"9":{"ha":519,"x_min":33,"x_max":469,"o":"m 241 1013 q 148 929 186 1013 q 109 722 109 846 q 149 529 109 603 q 253 456 189 456 q 357 516 319 456 q 396 682 396 577 q 350 917 396 822 q 241 1013 304 1013 m 61 28 l 61 408 q 151 114 106 205 q 252 22 197 22 q 362 158 319 22 q 406 515 406 293 q 405 545 406 525 q 404 575 404 564 q 344 463 382 498 q 248 428 307 428 q 92 506 151 428 q 33 714 33 585 q 60 868 33 795 q 138 994 87 941 q 185 1030 159 1018 q 240 1043 212 1043 q 404 901 339 1043 q 469 533 469 760 q 407 139 469 291 q 252 -12 345 -12 q 179 23 214 -12 q 113 134 145 59 l 61 28 z "},"Ď":{"ha":833,"x_min":69,"x_max":764,"o":"m 69 -245 l 69 979 l 764 979 l 764 -245 l 69 -245 m 147 -168 l 686 -168 l 686 901 l 147 901 l 147 -168 z "},"ď":{"ha":833,"x_min":69,"x_max":764,"o":"m 69 -245 l 69 979 l 764 979 l 764 -245 l 69 -245 m 147 -168 l 686 -168 l 686 901 l 147 901 l 147 -168 z "},"Đ":{"ha":833,"x_min":69,"x_max":764,"o":"m 69 -245 l 69 979 l 764 979 l 764 -245 l 69 -245 m 147 -168 l 686 -168 l 686 901 l 147 901 l 147 -168 z "},"ˈ":{"ha":833,"x_min":69,"x_max":764,"o":"m 69 -245 l 69 979 l 764 979 l 764 -245 l 69 -245 m 147 -168 l 686 -168 l 686 901 l 147 901 l 147 -168 z "},"―":{"ha":833,"x_min":69,"x_max":764,"o":"m 69 -245 l 69 979 l 764 979 l 764 -245 l 69 -245 m 147 -168 l 686 -168 l 686 901 l 147 901 l 147 -168 z "},"‖":{"ha":833,"x_min":69,"x_max":764,"o":"m 69 -245 l 69 979 l 764 979 l 764 -245 l 69 -245 m 147 -168 l 686 -168 l 686 901 l 147 901 l 147 -168 z "},"‗":{"ha":833,"x_min":69,"x_max":764,"o":"m 69 -245 l 69 979 l 764 979 l 764 -245 l 69 -245 m 147 -168 l 686 -168 l 686 901 l 147 901 l 147 -168 z "},"‛":{"ha":833,"x_min":69,"x_max":764,"o":"m 69 -245 l 69 979 l 764 979 l 764 -245 l 69 -245 m 147 -168 l 686 -168 l 686 901 l 147 901 l 147 -168 z "},"‟":{"ha":833,"x_min":69,"x_max":764,"o":"m 69 -245 l 69 979 l 764 979 l 764 -245 l 69 -245 m 147 -168 l 686 -168 l 686 901 l 147 901 l 147 -168 z "},"‣":{"ha":833,"x_min":69,"x_max":764,"o":"m 69 -245 l 69 979 l 764 979 l 764 -245 l 69 -245 m 147 -168 l 686 -168 l 686 901 l 147 901 l 147 -168 z "},"․":{"ha":833,"x_min":69,"x_max":764,"o":"m 69 -245 l 69 979 l 764 979 l 764 -245 l 69 -245 m 147 -168 l 686 -168 l 686 901 l 147 901 l 147 -168 z "},"‥":{"ha":833,"x_min":69,"x_max":764,"o":"m 69 -245 l 69 979 l 764 979 l 764 -245 l 69 -245 m 147 -168 l 686 -168 l 686 901 l 147 901 l 147 -168 z "},"℣":{"ha":833,"x_min":69,"x_max":764,"o":"m 69 -245 l 69 979 l 764 979 l 764 -245 l 69 -245 m 147 -168 l 686 -168 l 686 901 l 147 901 l 147 -168 z "},"ℤ":{"ha":833,"x_min":69,"x_max":764,"o":"m 69 -245 l 69 979 l 764 979 l 764 -245 l 69 -245 m 147 -168 l 686 -168 l 686 901 l 147 901 l 147 -168 z "},"℥":{"ha":833,"x_min":69,"x_max":764,"o":"m 69 -245 l 69 979 l 764 979 l 764 -245 l 69 -245 m 147 -168 l 686 -168 l 686 901 l 147 901 l 147 -168 z "},"∃":{"ha":833,"x_min":69,"x_max":764,"o":"m 69 -245 l 69 979 l 764 979 l 764 -245 l 69 -245 m 147 -168 l 686 -168 l 686 901 l 147 901 l 147 -168 z "},"∄":{"ha":833,"x_min":69,"x_max":764,"o":"m 69 -245 l 69 979 l 764 979 l 764 -245 l 69 -245 m 147 -168 l 686 -168 l 686 901 l 147 901 l 147 -168 z "},"∅":{"ha":833,"x_min":69,"x_max":764,"o":"m 69 -245 l 69 979 l 764 979 l 764 -245 l 69 -245 m 147 -168 l 686 -168 l 686 901 l 147 901 l 147 -168 z "},"∐":{"ha":833,"x_min":69,"x_max":764,"o":"m 69 -245 l 69 979 l 764 979 l 764 -245 l 69 -245 m 147 -168 l 686 -168 l 686 901 l 147 901 l 147 -168 z "},"∓":{"ha":833,"x_min":69,"x_max":764,"o":"m 69 -245 l 69 979 l 764 979 l 764 -245 l 69 -245 m 147 -168 l 686 -168 l 686 901 l 147 901 l 147 -168 z "},"∔":{"ha":833,"x_min":69,"x_max":764,"o":"m 69 -245 l 69 979 l 764 979 l 764 -245 l 69 -245 m 147 -168 l 686 -168 l 686 901 l 147 901 l 147 -168 z "},"∖":{"ha":833,"x_min":69,"x_max":764,"o":"m 69 -245 l 69 979 l 764 979 l 764 -245 l 69 -245 m 147 -168 l 686 -168 l 686 901 l 147 901 l 147 -168 z "},"∗":{"ha":833,"x_min":69,"x_max":764,"o":"m 69 -245 l 69 979 l 764 979 l 764 -245 l 69 -245 m 147 -168 l 686 -168 l 686 901 l 147 901 l 147 -168 z "},"∘":{"ha":833,"x_min":69,"x_max":764,"o":"m 69 -245 l 69 979 l 764 979 l 764 -245 l 69 -245 m 147 -168 l 686 -168 l 686 901 l 147 901 l 147 -168 z "},"∛":{"ha":833,"x_min":69,"x_max":764,"o":"m 69 -245 l 69 979 l 764 979 l 764 -245 l 69 -245 m 147 -168 l 686 -168 l 686 901 l 147 901 l 147 -168 z "},"∜":{"ha":833,"x_min":69,"x_max":764,"o":"m 69 -245 l 69 979 l 764 979 l 764 -245 l 69 -245 m 147 -168 l 686 -168 l 686 901 l 147 901 l 147 -168 z "},"∝":{"ha":833,"x_min":69,"x_max":764,"o":"m 69 -245 l 69 979 l 764 979 l 764 -245 l 69 -245 m 147 -168 l 686 -168 l 686 901 l 147 901 l 147 -168 z "},"≡":{"ha":833,"x_min":69,"x_max":764,"o":"m 69 -245 l 69 979 l 764 979 l 764 -245 l 69 -245 m 147 -168 l 686 -168 l 686 901 l 147 901 l 147 -168 z "},"≢":{"ha":833,"x_min":69,"x_max":764,"o":"m 69 -245 l 69 979 l 764 979 l 764 -245 l 69 -245 m 147 -168 l 686 -168 l 686 901 l 147 901 l 147 -168 z "},"≣":{"ha":833,"x_min":69,"x_max":764,"o":"m 69 -245 l 69 979 l 764 979 l 764 -245 l 69 -245 m 147 -168 l 686 -168 l 686 901 l 147 901 l 147 -168 z "}," ":{"ha":260,"x_min":0,"x_max":0,"o":""},"!":{"ha":272,"x_min":7,"x_max":265,"o":"m 26 36 q 56 72 26 57 q 131 86 85 86 q 206 72 176 86 q 236 36 236 57 q 206 2 236 16 q 131 -12 176 -12 q 56 2 85 -12 q 26 36 26 16 m 265 1032 l 184 981 l 149 176 l 256 125 l 7 125 l 118 176 l 90 977 l 7 1032 l 265 1032 z "},"\"":{"ha":555,"x_min":104,"x_max":452,"o":"m 452 1032 l 366 814 l 334 814 l 359 990 l 292 1032 l 452 1032 m 264 1032 l 178 814 l 146 814 l 172 990 l 104 1032 l 264 1032 z "},"#":{"ha":627,"x_min":29,"x_max":597,"o":"m 419 642 l 244 642 l 211 411 l 386 411 l 419 642 m 468 642 l 449 411 l 596 411 l 596 232 l 543 350 l 443 357 l 415 49 l 492 0 l 328 0 l 379 363 l 205 378 l 150 0 l 53 0 l 132 56 l 161 380 l 79 387 l 29 315 l 29 411 l 163 411 l 182 642 l 29 642 l 29 829 l 81 708 l 187 699 l 212 982 l 136 1032 l 301 1032 l 252 693 l 424 679 l 475 1032 l 581 1032 l 500 986 l 472 675 l 547 668 l 597 743 l 597 642 l 468 642 z "},"$":{"ha":457,"x_min":25,"x_max":408,"o":"m 200 21 l 208 21 q 291 79 264 21 q 318 260 318 137 q 299 434 318 372 q 235 541 279 496 l 200 21 m 239 1013 q 232 1013 236 1013 q 227 1014 227 1014 q 165 972 185 1014 q 144 846 144 931 q 160 709 144 764 q 211 612 176 655 l 239 1013 m 264 1003 l 237 587 q 370 430 332 503 q 408 264 408 357 q 353 67 408 146 q 218 -11 298 -11 q 201 -9 213 -11 q 197 -8 199 -9 l 192 -107 l 281 -155 l 72 -155 l 165 -103 l 171 -1 q 117 43 140 9 q 72 138 93 77 l 25 40 l 25 433 q 106 133 74 218 q 172 29 138 48 l 208 561 q 92 690 126 629 q 57 828 57 752 q 103 983 57 922 q 221 1043 150 1043 q 231 1043 227 1043 q 240 1042 235 1042 l 245 1129 l 161 1181 l 361 1181 l 273 1129 l 267 1034 q 307 1000 289 1024 q 342 936 326 977 l 385 1050 l 385 703 q 323 915 351 846 q 264 1003 295 984 z "},"%":{"ha":808,"x_min":37,"x_max":771,"o":"m 624 541 q 557 486 577 541 q 538 300 538 432 q 558 86 538 148 q 625 24 578 24 q 685 82 668 24 q 703 298 703 141 q 684 486 703 431 q 624 541 666 541 m 624 572 q 731 500 690 572 q 771 304 771 428 q 731 73 771 158 q 624 -12 690 -12 q 510 68 551 -12 q 469 293 469 149 q 512 496 469 420 q 624 572 554 572 m 589 1032 l 265 0 l 146 0 l 257 54 l 494 979 l 412 1032 l 589 1032 m 192 1010 q 124 955 144 1010 q 104 770 104 900 q 125 557 104 619 q 193 494 145 494 q 252 552 235 494 q 269 768 269 609 q 252 957 269 903 q 192 1010 234 1010 m 192 1043 q 299 971 259 1043 q 339 774 339 899 q 299 543 339 628 q 192 458 259 458 q 78 539 119 458 q 37 764 37 621 q 80 967 37 890 q 192 1043 123 1043 z "},"&":{"ha":524,"x_min":22,"x_max":526,"o":"m 338 92 q 215 356 262 250 q 143 526 168 461 q 104 440 117 492 q 92 321 92 389 q 132 106 92 195 q 225 17 173 17 q 285 36 257 17 q 338 92 313 54 m 293 437 l 526 437 l 424 386 l 424 319 q 410 200 424 258 q 368 89 396 142 l 410 0 l 494 -53 l 294 -53 l 380 1 l 351 64 q 291 7 324 26 q 221 -12 258 -12 q 81 88 140 -12 q 22 332 22 188 q 49 473 22 413 q 127 571 75 532 q 91 703 103 639 q 79 828 79 766 q 123 984 79 926 q 237 1043 166 1043 q 316 1015 280 1043 q 376 936 353 987 l 416 1034 l 416 717 q 336 954 373 892 q 244 1015 299 1015 q 176 973 198 1015 q 154 840 154 931 q 161 717 154 778 q 180 596 168 656 q 214 603 196 601 q 258 606 232 606 q 281 605 274 606 q 294 604 288 605 l 343 694 l 343 490 l 294 578 q 278 580 287 579 q 253 581 270 581 q 220 577 235 581 q 189 567 204 574 q 251 368 210 481 q 354 119 293 254 q 385 212 374 164 q 395 313 395 260 l 395 385 l 293 437 z "},"'":{"ha":368,"x_min":104,"x_max":264,"o":"m 264 1032 l 178 814 l 146 814 l 172 990 l 104 1032 l 264 1032 z "},"(":{"ha":332,"x_min":40,"x_max":310,"o":"m 57 1124 l 310 1124 q 171 777 216 951 q 126 415 126 602 q 170 92 126 248 q 304 -218 214 -63 l 50 -218 l 245 -179 q 91 129 141 -12 q 40 392 40 269 q 94 712 40 536 q 252 1082 147 887 l 57 1124 z "},")":{"ha":332,"x_min":22,"x_max":292,"o":"m 273 1124 l 79 1082 q 238 710 184 885 q 292 392 292 534 q 241 132 292 272 q 85 -179 191 -8 l 282 -218 l 28 -218 q 161 91 118 -64 q 204 415 204 245 q 160 778 204 605 q 22 1124 115 951 l 273 1124 z "},"*":{"ha":404,"x_min":32,"x_max":366,"o":"m 366 914 l 262 920 l 220 860 l 359 860 l 359 739 l 296 842 l 220 842 l 294 722 l 203 663 l 245 765 l 200 832 l 118 714 l 32 774 l 131 770 l 182 842 l 43 842 l 43 957 l 111 860 l 182 860 l 106 975 l 201 1043 l 161 933 l 201 869 l 282 982 l 366 914 z "},"+":{"ha":1157,"x_min":172,"x_max":985,"o":"m 551 828 l 606 828 l 606 441 l 985 441 l 985 386 l 606 386 l 606 0 l 551 0 l 551 386 l 172 386 l 172 441 l 551 441 l 551 828 z "},",":{"ha":221,"x_min":29,"x_max":192,"o":"m 106 -163 l 126 -9 q 113 -11 117 -10 q 104 -11 109 -11 q 51 3 73 -11 q 29 36 29 17 q 53 71 29 56 q 111 85 77 85 q 169 70 146 85 q 192 33 192 56 q 190 25 192 30 q 186 12 189 20 l 106 -163 z "},"-":{"ha":387,"x_min":57,"x_max":330,"o":"m 330 452 l 319 376 l 82 392 l 57 429 l 330 452 z "},".":{"ha":221,"x_min":32,"x_max":189,"o":"m 110 86 q 166 72 144 86 q 189 36 189 57 q 166 2 189 16 q 110 -12 143 -12 q 54 2 77 -12 q 32 36 32 16 q 54 72 32 57 q 110 86 76 86 z "},"/":{"ha":370,"x_min":-66,"x_max":346,"o":"m 346 1140 l 33 -197 l -66 -197 l 9 -147 l 243 1089 l 172 1140 l 346 1140 z "},":":{"ha":221,"x_min":32,"x_max":189,"o":"m 110 86 q 166 72 144 86 q 189 36 189 57 q 166 2 189 16 q 110 -12 143 -12 q 54 2 77 -12 q 32 36 32 16 q 54 72 32 57 q 110 86 76 86 m 110 282 q 166 268 144 282 q 189 232 189 253 q 166 196 189 211 q 110 182 144 182 q 54 196 76 182 q 32 232 32 211 q 54 268 32 253 q 110 282 76 282 z "},";":{"ha":221,"x_min":29,"x_max":192,"o":"m 111 282 q 167 268 144 282 q 189 232 189 253 q 167 196 189 211 q 111 182 144 182 q 55 196 77 182 q 32 232 32 211 q 55 268 32 253 q 111 282 77 282 m 106 -163 l 126 -9 q 113 -11 117 -10 q 104 -11 109 -11 q 51 3 73 -11 q 29 36 29 17 q 53 70 29 56 q 110 85 76 85 q 169 71 145 85 q 192 36 192 57 q 190 24 192 30 q 186 12 189 18 l 106 -163 z "},"<":{"ha":774,"x_min":82,"x_max":692,"o":"m 692 913 l 692 863 l 158 521 l 692 179 l 692 129 l 82 521 l 692 913 z "},"=":{"ha":1157,"x_min":172,"x_max":985,"o":"m 172 318 l 985 318 l 985 262 l 172 262 l 172 318 m 172 564 l 985 564 l 985 510 l 172 510 l 172 564 z "},">":{"ha":774,"x_min":82,"x_max":692,"o":"m 82 129 l 82 179 l 616 521 l 82 863 l 82 913 l 692 521 l 82 129 z "},"?":{"ha":501,"x_min":47,"x_max":453,"o":"m 140 36 q 170 72 140 58 q 244 86 199 86 q 320 72 290 86 q 350 36 350 57 q 320 2 350 16 q 244 -12 290 -12 q 170 2 199 -12 q 140 36 140 16 m 47 616 l 47 987 l 94 899 q 165 1007 129 972 q 241 1043 201 1043 q 390 952 327 1043 q 453 734 453 862 q 401 547 453 621 q 256 453 349 473 l 256 182 l 371 129 l 121 129 l 235 186 l 182 472 l 200 472 q 336 534 292 472 q 380 724 380 596 q 340 930 380 847 q 243 1013 300 1013 q 135 916 183 1013 q 47 616 87 820 z "},"@":{"ha":1150,"x_min":29,"x_max":1121,"o":"m 668 545 q 631 766 668 676 q 545 856 593 856 q 471 776 494 856 q 449 517 449 696 q 469 258 449 321 q 539 195 488 195 q 631 292 594 195 q 668 545 668 389 m 811 56 l 832 -79 l 766 11 q 689 -6 729 -1 q 604 -12 648 -12 q 408 15 500 -12 q 239 96 315 42 q 83 272 138 167 q 29 504 29 378 q 68 714 29 616 q 178 880 106 812 q 368 1002 262 962 q 599 1043 473 1043 q 815 1003 714 1043 q 1000 885 916 963 q 1090 756 1059 830 q 1121 597 1121 682 q 995 291 1121 408 q 659 171 869 174 l 659 300 q 604 195 635 230 q 534 160 573 160 q 413 254 456 160 q 370 522 370 348 q 417 791 370 692 q 543 890 465 890 q 618 840 583 890 q 671 704 653 790 l 684 879 l 804 879 l 718 827 l 718 208 q 967 333 871 227 q 1063 590 1063 439 q 1031 742 1063 669 q 945 868 1000 815 q 785 971 872 937 q 600 1006 699 1006 q 405 970 494 1006 q 239 861 315 934 q 133 702 171 796 q 96 501 96 608 q 146 286 96 385 q 289 121 196 186 q 434 49 355 73 q 603 25 513 25 q 701 33 650 25 q 811 56 752 40 z "},"A":{"ha":549,"x_min":0,"x_max":547,"o":"m 340 454 l 250 808 l 212 454 l 340 454 m 547 0 l 346 0 l 437 69 l 347 427 l 210 427 l 164 0 l 0 0 l 81 56 l 275 1047 l 464 68 l 547 0 z "},"B":{"ha":443,"x_min":3,"x_max":418,"o":"m 110 26 l 146 28 q 292 106 237 30 q 346 310 346 182 q 313 485 346 428 q 212 542 280 542 q 163 539 195 542 q 144 538 151 538 l 110 26 m 146 567 q 159 566 151 566 q 195 564 186 564 q 298 626 262 564 q 334 808 334 688 q 295 958 334 909 q 178 1006 257 1006 l 175 1006 l 146 567 m 3 0 l 87 54 l 87 982 l 16 1032 l 175 1032 q 340 974 281 1032 q 399 812 399 916 q 363 656 399 724 q 265 557 328 589 q 377 473 336 536 q 418 322 418 410 q 339 91 418 182 q 142 0 261 0 l 3 0 z "},"C":{"ha":454,"x_min":40,"x_max":425,"o":"m 351 411 l 425 411 q 362 107 418 224 q 229 -9 307 -9 q 95 137 151 -9 q 40 513 40 283 q 101 892 40 741 q 244 1043 161 1043 q 316 1013 286 1043 q 366 925 347 983 l 408 1023 l 408 693 q 335 937 376 858 q 243 1017 294 1017 q 154 882 182 1017 q 126 443 126 747 q 151 118 126 216 q 232 20 176 20 q 318 104 284 20 q 351 325 351 189 l 351 411 z "},"D":{"ha":463,"x_min":3,"x_max":421,"o":"m 110 26 q 292 176 235 29 q 349 652 349 323 q 310 929 349 855 q 175 1005 271 1004 l 110 26 m 3 0 l 87 54 l 87 982 l 16 1032 l 160 1032 q 354 916 288 1032 q 421 579 421 800 q 382 299 421 429 q 277 85 344 168 q 200 22 242 43 q 113 0 159 0 l 3 0 z "},"E":{"ha":461,"x_min":3,"x_max":428,"o":"m 3 0 l 87 54 l 87 982 l 16 1032 l 428 1032 l 349 828 l 349 1006 l 175 1006 l 143 532 l 250 532 l 318 671 l 318 357 l 248 501 l 142 501 l 110 26 l 345 26 l 416 279 l 416 0 l 3 0 z "},"F":{"ha":428,"x_min":3,"x_max":439,"o":"m 3 0 l 87 54 l 87 982 l 16 1032 l 439 1032 l 343 782 l 343 1006 l 175 1006 l 144 532 l 252 532 l 319 671 l 319 357 l 249 501 l 142 501 l 110 0 l 3 0 z "},"G":{"ha":481,"x_min":40,"x_max":443,"o":"m 224 529 l 443 529 l 443 411 q 381 114 443 238 q 239 -9 319 -9 q 97 135 153 -9 q 40 513 40 279 q 102 894 40 745 q 253 1043 163 1043 q 329 1012 295 1043 q 383 925 363 981 l 425 1023 l 425 693 q 350 939 391 861 q 252 1017 308 1017 q 155 891 184 1017 q 126 460 126 766 q 152 113 126 207 q 241 20 178 20 q 333 104 297 20 q 368 325 368 189 l 368 511 l 298 511 l 224 364 l 224 529 z "},"H":{"ha":510,"x_min":3,"x_max":511,"o":"m 3 0 l 87 54 l 87 982 l 16 1032 l 175 1032 l 144 530 l 367 530 l 399 1032 l 511 1032 l 421 981 l 421 47 l 490 0 l 334 0 l 366 500 l 143 500 l 110 0 l 3 0 z "},"I":{"ha":256,"x_min":-29,"x_max":283,"o":"m 31 985 q 58 1015 31 1002 q 125 1028 85 1028 q 195 1015 167 1028 q 222 985 222 1002 q 195 956 222 968 q 125 945 168 945 q 57 956 83 945 q 31 985 31 967 m -16 0 l 102 49 l 79 857 l -29 907 l 283 907 l 170 857 l 129 49 l 245 0 l -16 0 z "},"J":{"ha":468,"x_min":25,"x_max":435,"o":"m 61 1032 l 357 1032 l 232 983 q 387 731 340 852 q 435 468 435 610 q 373 116 435 241 q 201 -9 311 -9 q 78 58 130 -9 q 25 220 25 125 q 52 341 25 287 q 136 443 79 395 l 25 488 l 281 488 q 132 398 173 454 q 90 227 90 342 q 123 75 90 132 q 208 17 157 17 q 319 121 284 17 q 354 457 354 226 q 316 766 354 652 q 191 982 279 880 l 61 1032 z "},"K":{"ha":475,"x_min":3,"x_max":486,"o":"m 3 0 l 87 54 l 87 982 l 16 1032 l 175 1032 l 147 600 l 354 971 l 271 1032 l 473 1032 l 392 971 l 205 643 l 399 66 l 486 0 l 282 0 l 372 71 l 144 551 l 110 0 l 3 0 z "},"L":{"ha":416,"x_min":3,"x_max":392,"o":"m 3 0 l 87 54 l 87 982 l 16 1032 l 175 1032 l 110 28 l 315 28 l 392 386 l 392 0 l 3 0 z "},"M":{"ha":603,"x_min":3,"x_max":589,"o":"m 3 0 l 89 54 l 89 982 l 17 1032 l 189 1032 l 290 529 l 493 1032 l 589 1032 l 514 982 l 514 50 l 589 0 l 427 0 l 479 888 l 296 309 l 168 971 l 111 0 l 3 0 z "},"N":{"ha":525,"x_min":3,"x_max":515,"o":"m 3 0 l 87 54 l 87 982 l 16 1032 l 175 1032 l 358 109 l 412 1032 l 515 1032 l 436 979 l 436 50 l 511 0 l 346 0 l 164 895 l 110 0 l 3 0 z "},"O":{"ha":490,"x_min":40,"x_max":450,"o":"m 126 517 q 153 128 126 233 q 245 24 180 24 q 338 127 311 24 q 364 517 364 230 q 338 906 364 804 q 245 1008 311 1008 q 153 905 180 1008 q 126 517 126 801 m 40 517 q 97 901 40 758 q 245 1043 153 1043 q 394 901 338 1043 q 450 517 450 758 q 394 133 450 275 q 245 -9 338 -9 q 97 133 153 -9 q 40 517 40 275 z "},"P":{"ha":429,"x_min":3,"x_max":414,"o":"m 138 439 l 147 439 q 292 524 238 439 q 346 757 346 610 q 306 947 346 886 q 179 1008 265 1008 l 176 1008 l 138 439 m 3 0 l 87 54 l 87 982 l 16 1032 l 170 1032 q 347 950 280 1032 q 414 732 414 867 q 335 505 414 595 q 136 415 256 415 l 110 0 l 3 0 z "},"Q":{"ha":490,"x_min":40,"x_max":450,"o":"m 304 52 q 350 198 336 92 q 364 517 364 304 q 338 904 364 800 q 245 1008 311 1008 q 153 906 180 1008 q 126 517 126 804 q 153 128 126 233 q 245 24 180 24 q 266 26 256 24 q 285 35 276 29 l 180 204 l 319 204 l 254 134 l 304 52 m 322 22 l 443 -179 l 261 -179 l 370 -109 l 301 5 q 275 -6 289 -2 q 245 -9 262 -9 q 97 133 153 -9 q 40 517 40 275 q 97 901 40 758 q 245 1043 153 1043 q 394 901 338 1043 q 450 517 450 758 q 417 205 450 332 q 322 22 385 79 z "},"R":{"ha":472,"x_min":3,"x_max":465,"o":"m 139 439 q 147 438 142 439 q 155 437 153 437 q 298 525 244 437 q 353 757 353 612 q 309 941 353 877 q 183 1006 265 1006 l 175 1006 l 139 439 m 3 0 l 87 54 l 87 982 l 16 1032 l 171 1032 q 352 949 283 1032 q 421 732 421 867 q 367 537 421 620 q 218 422 312 454 l 380 65 l 465 0 l 256 0 l 351 71 l 138 411 l 110 0 l 3 0 z "},"S":{"ha":449,"x_min":32,"x_max":415,"o":"m 392 1050 l 392 703 q 314 952 349 889 q 231 1015 280 1015 q 172 970 192 1015 q 151 839 151 926 q 173 691 151 747 q 261 571 195 635 q 387 411 358 475 q 415 264 415 348 q 360 67 415 144 q 220 -9 304 -9 q 140 26 174 -9 q 79 138 106 61 l 32 40 l 32 433 q 124 105 85 189 q 218 21 163 21 q 299 79 273 21 q 325 260 325 136 q 303 439 325 380 q 227 553 281 499 q 199 577 218 561 q 86 711 117 650 q 70 766 76 731 q 64 839 64 800 q 112 985 64 928 q 232 1043 159 1043 q 298 1017 270 1043 q 349 936 327 991 l 392 1050 z "},"T":{"ha":431,"x_min":14,"x_max":416,"o":"m 416 644 l 342 1004 l 228 1004 l 249 57 l 338 0 l 79 0 l 170 53 l 203 1004 l 86 1004 l 14 644 l 14 1032 l 416 1032 l 416 644 z "},"U":{"ha":494,"x_min":41,"x_max":456,"o":"m 252 956 l 456 956 l 363 889 q 428 716 406 805 q 450 534 450 627 q 419 274 450 398 q 334 64 388 150 q 283 10 311 29 q 227 -9 255 -9 q 96 109 151 -9 q 41 404 41 227 q 71 676 41 534 q 157 968 100 819 l 71 1032 l 275 1032 l 184 966 q 138 744 153 867 q 123 440 123 621 q 148 116 123 209 q 228 24 172 24 q 335 190 290 24 q 379 610 379 355 q 368 781 379 714 q 332 892 357 847 l 252 956 z "},"V":{"ha":489,"x_min":-1,"x_max":521,"o":"m 521 1007 l 433 945 l 268 0 l 167 0 l 243 53 l 78 982 l -1 1032 l 170 1032 l 262 115 l 406 940 l 314 1007 l 521 1007 z "},"W":{"ha":604,"x_min":3,"x_max":600,"o":"m 600 1032 l 519 982 l 519 46 l 585 0 l 414 0 l 313 503 l 110 0 l 3 0 l 87 54 l 87 982 l 14 1032 l 176 1032 l 118 144 l 307 724 l 435 61 l 497 1032 l 600 1032 z "},"X":{"ha":507,"x_min":4,"x_max":514,"o":"m 514 0 l 351 0 l 233 440 l 111 96 l 204 24 l 4 24 l 81 86 l 221 486 l 93 970 l 8 1032 l 212 1032 l 121 962 l 253 579 l 380 942 l 292 1007 l 498 1007 l 410 942 l 268 538 l 437 49 l 514 0 z "},"Y":{"ha":472,"x_min":-8,"x_max":505,"o":"m 505 1006 l 431 947 l 245 437 l 290 50 l 370 0 l 115 0 l 199 50 l 220 437 l 78 966 l -8 1032 l 199 1032 l 107 961 l 267 561 l 395 936 l 304 1006 l 505 1006 z "},"Z":{"ha":475,"x_min":29,"x_max":449,"o":"m 449 1032 l 68 26 l 340 26 l 415 385 l 415 0 l 29 0 l 343 1006 l 135 1006 l 58 646 l 58 1032 l 449 1032 z "},"[":{"ha":317,"x_min":97,"x_max":310,"o":"m 310 -191 l 160 -191 l 97 1147 l 302 1147 l 184 1096 l 184 -139 l 310 -191 z "},"\\":{"ha":368,"x_min":16,"x_max":427,"o":"m 16 1140 l 187 1140 l 117 1089 l 350 -147 l 427 -197 l 326 -197 l 16 1140 z "},"]":{"ha":317,"x_min":7,"x_max":220,"o":"m 7 -191 l 132 -139 l 132 1096 l 14 1147 l 220 1147 l 157 -191 l 7 -191 z "},"^":{"ha":774,"x_min":87,"x_max":686,"o":"m 87 656 l 380 1104 l 389 1104 l 686 656 l 608 656 l 370 1017 l 132 656 l 87 656 z "},"_":{"ha":682,"x_min":0,"x_max":682,"o":"m 0 -163 l 682 -163 l 682 -207 l 0 -207 l 0 -163 z "},"`":{"ha":694,"x_min":204,"x_max":386,"o":"m 386 819 l 204 954 l 322 954 l 386 819 z "},"a":{"ha":490,"x_min":36,"x_max":485,"o":"m 343 387 q 306 619 343 524 q 220 714 268 714 q 142 626 168 714 q 117 359 117 538 q 139 98 117 173 q 215 24 162 24 q 306 127 268 24 q 343 387 343 230 m 485 0 l 334 0 l 334 127 q 278 23 309 58 q 211 -12 248 -12 q 84 90 132 -12 q 36 366 36 191 q 87 642 36 536 q 218 749 139 749 q 293 701 260 749 q 346 564 326 654 l 358 737 l 479 737 l 393 685 l 393 57 l 485 0 z "},"b":{"ha":490,"x_min":4,"x_max":453,"o":"m 273 714 q 184 612 222 714 q 146 359 146 510 q 183 121 146 219 q 267 24 220 24 q 347 111 321 24 q 374 378 374 198 q 351 638 374 563 q 273 714 328 714 m 4 0 l 96 54 l 96 978 l 4 1032 l 178 1032 l 155 610 q 210 714 180 680 q 278 749 240 749 q 405 647 357 749 q 453 372 453 546 q 400 96 453 204 q 269 -12 347 -12 q 194 35 227 -12 q 140 174 161 83 l 131 0 l 4 0 z "},"c":{"ha":403,"x_min":36,"x_max":378,"o":"m 300 285 l 378 285 q 323 62 363 137 q 216 -12 282 -12 q 85 88 135 -12 q 36 359 36 189 q 88 641 36 533 q 221 749 140 749 q 281 720 254 749 q 330 636 309 692 l 357 758 l 357 429 q 298 640 335 566 q 216 714 262 714 q 142 619 168 714 q 117 346 117 524 q 141 101 117 178 q 218 24 165 24 q 282 72 264 24 q 300 258 300 119 l 300 285 z "},"d":{"ha":490,"x_min":36,"x_max":485,"o":"m 343 387 q 306 619 343 524 q 220 714 268 714 q 142 626 169 714 q 115 374 115 538 q 138 98 115 173 q 215 24 160 24 q 306 125 269 24 q 343 387 343 227 m 485 0 l 358 0 l 351 210 q 293 43 328 98 q 211 -12 258 -12 q 84 90 132 -12 q 36 366 36 191 q 87 641 36 534 q 214 749 139 749 q 281 712 252 749 q 332 602 310 675 l 313 1032 l 485 1032 l 393 979 l 393 57 l 485 0 z "},"e":{"ha":397,"x_min":36,"x_max":375,"o":"m 300 410 l 300 456 q 275 645 300 575 q 210 714 251 714 q 137 638 163 714 q 107 410 111 562 l 300 410 m 375 382 l 107 382 q 133 104 107 184 q 221 24 159 24 q 292 86 260 24 q 354 288 323 148 l 354 3 l 328 104 q 276 15 302 43 q 215 -12 249 -12 q 85 89 134 -12 q 36 361 36 190 q 87 639 36 529 q 210 749 138 749 q 325 654 275 749 q 375 427 375 559 l 375 382 z "},"f":{"ha":425,"x_min":39,"x_max":450,"o":"m 450 1017 l 450 755 q 394 945 427 883 q 317 1007 361 1007 q 247 922 267 1007 q 221 543 226 836 l 298 543 l 353 668 l 353 392 l 297 517 l 221 517 l 221 468 q 225 254 221 358 q 237 54 229 151 l 346 0 l 110 0 l 201 53 q 170 301 182 183 q 154 517 158 418 l 89 517 l 39 387 l 39 668 l 92 543 l 153 543 q 152 588 152 566 q 151 637 151 610 q 186 956 151 869 q 307 1043 222 1043 q 375 1015 347 1043 q 428 924 404 986 l 450 1017 z "},"g":{"ha":484,"x_min":36,"x_max":479,"o":"m 222 714 q 142 628 168 714 q 117 359 117 541 q 139 98 117 173 q 215 24 162 24 q 306 127 268 24 q 343 387 343 230 q 305 618 343 522 q 222 714 267 714 m 479 737 l 393 685 l 393 61 q 351 -200 393 -112 q 225 -288 309 -288 q 155 -267 188 -288 q 100 -210 123 -247 l 60 -290 l 60 -45 q 136 -217 100 -171 q 227 -262 172 -262 q 310 -195 286 -262 q 334 52 334 -127 l 334 127 q 279 23 309 58 q 211 -12 248 -12 q 84 90 132 -12 q 36 366 36 191 q 87 643 36 536 q 218 749 139 749 q 292 701 259 749 q 346 564 326 652 l 358 737 l 479 737 z "},"h":{"ha":493,"x_min":4,"x_max":447,"o":"m 178 1032 l 157 614 q 210 714 179 680 q 278 749 241 749 q 398 652 349 749 q 447 406 447 555 q 418 215 447 300 q 329 53 390 129 l 446 0 l 257 0 q 346 174 317 77 q 374 401 374 271 q 349 640 374 563 q 273 717 325 717 q 195 645 233 717 q 153 479 157 573 l 131 0 l 4 0 l 96 54 l 96 978 l 4 1032 l 178 1032 z "},"i":{"ha":310,"x_min":4,"x_max":306,"o":"m 60 857 q 86 887 60 875 q 154 900 113 900 q 222 887 195 900 q 249 857 249 875 q 222 827 249 840 q 154 815 196 815 q 86 827 113 815 q 60 857 60 839 m 39 0 l 142 54 l 117 684 l 4 737 l 306 737 l 191 684 l 171 54 l 269 0 l 39 0 z "},"j":{"ha":296,"x_min":-92,"x_max":296,"o":"m 61 857 q 87 888 61 876 q 154 900 113 900 q 222 887 195 900 q 249 857 249 875 q 222 827 249 839 q 154 815 196 815 q 87 827 113 815 q 61 857 61 839 m -92 -290 l -92 -45 q -20 -227 -45 -191 q 41 -262 5 -262 q 109 -205 90 -262 q 129 -3 129 -148 q 127 144 129 58 q 123 329 126 231 l 115 682 l 3 737 l 296 737 l 189 682 l 168 61 q 132 -231 159 -174 q 39 -288 105 -288 q -13 -269 10 -288 q -54 -210 -35 -250 l -92 -290 z "},"k":{"ha":467,"x_min":4,"x_max":478,"o":"m 4 0 l 96 54 l 96 978 l 4 1032 l 178 1032 l 150 440 l 311 682 l 224 737 l 433 737 l 350 682 l 199 460 l 386 53 l 478 0 l 265 0 l 357 53 l 149 389 l 131 0 l 4 0 z "},"l":{"ha":252,"x_min":4,"x_max":220,"o":"m 18 0 l 102 54 l 102 972 l 4 1032 l 176 1032 l 135 54 l 220 0 l 18 0 z "},"m":{"ha":705,"x_min":4,"x_max":660,"o":"m 4 0 l 90 54 l 90 686 l 4 737 l 131 737 l 136 546 q 191 696 156 644 q 271 749 227 749 q 334 730 307 749 q 387 669 362 711 q 436 729 411 710 q 490 749 461 749 q 611 652 562 749 q 660 406 660 555 q 631 215 660 300 q 542 53 602 129 l 657 0 l 468 0 q 557 175 529 78 q 586 404 586 272 q 561 642 586 568 q 484 717 536 717 q 441 698 460 717 q 403 639 422 679 q 418 577 413 610 q 424 510 424 545 q 400 319 424 420 q 330 106 377 218 l 415 54 l 211 54 l 297 106 q 341 290 326 202 q 355 456 355 378 q 329 645 355 572 q 262 717 302 717 q 179 610 219 717 q 139 364 139 503 q 147 193 139 286 q 170 0 155 100 l 4 0 z "},"n":{"ha":492,"x_min":4,"x_max":446,"o":"m 4 0 l 90 54 l 90 686 l 4 737 l 131 737 l 136 546 q 194 696 157 643 q 277 749 231 749 q 397 652 348 749 q 446 406 446 555 q 417 214 446 300 q 328 53 389 127 l 444 0 l 256 0 q 345 177 317 79 q 372 416 372 274 q 348 643 372 569 q 272 717 323 717 q 181 609 222 717 q 140 351 140 502 q 148 178 140 267 q 170 0 155 90 l 4 0 z "},"o":{"ha":406,"x_min":36,"x_max":370,"o":"m 201 715 q 130 632 154 715 q 106 387 106 549 q 130 115 106 207 q 201 22 154 22 q 275 116 250 22 q 300 387 300 210 q 275 632 300 549 q 201 715 250 715 m 203 749 q 322 643 274 749 q 370 371 370 537 q 323 93 370 199 q 203 -12 276 -12 q 83 94 130 -12 q 36 371 36 200 q 84 643 36 536 q 203 749 132 749 z "},"p":{"ha":490,"x_min":4,"x_max":453,"o":"m 273 714 q 183 613 221 714 q 146 361 146 513 q 183 121 146 218 q 267 24 220 24 q 348 113 321 24 q 374 392 374 202 q 350 640 374 565 q 273 714 327 714 m 9 -294 l 96 -241 l 96 681 l 4 737 l 131 737 l 139 528 q 194 693 159 637 q 278 749 229 749 q 405 647 357 749 q 453 372 453 546 q 401 95 453 202 q 273 -12 350 -12 q 208 26 238 -12 q 157 136 178 64 l 176 -294 l 9 -294 z "},"q":{"ha":490,"x_min":36,"x_max":485,"o":"m 343 350 q 306 612 343 509 q 215 714 269 714 q 139 640 162 714 q 117 378 117 565 q 142 110 117 197 q 222 24 168 24 q 305 120 267 24 q 343 350 343 216 m 485 737 l 393 681 l 393 -241 l 479 -294 l 313 -294 l 332 136 q 280 26 311 64 q 214 -12 250 -12 q 88 96 140 -12 q 36 372 36 203 q 84 647 36 546 q 211 749 132 749 q 294 693 258 749 q 351 528 330 637 l 358 737 l 485 737 z "},"r":{"ha":392,"x_min":4,"x_max":370,"o":"m 7 0 l 90 54 l 90 686 l 4 737 l 126 737 l 136 549 q 178 701 151 653 q 249 749 205 749 q 303 724 281 749 q 339 647 325 699 l 370 741 l 370 383 q 312 615 345 538 q 240 692 280 692 q 169 604 197 692 q 142 370 142 516 q 149 182 142 275 q 170 0 155 90 l 7 0 z "},"s":{"ha":396,"x_min":35,"x_max":370,"o":"m 336 745 l 336 471 q 283 658 315 597 q 208 718 252 718 q 145 689 168 718 q 123 606 123 660 q 273 377 123 489 q 282 371 279 373 q 348 291 327 337 q 370 179 370 244 q 326 40 370 92 q 211 -12 283 -12 q 129 22 165 -12 q 61 129 92 56 l 35 0 l 35 330 q 108 101 63 182 q 207 21 153 21 q 272 56 253 21 q 292 176 292 92 q 272 306 292 260 q 205 385 252 352 q 201 388 204 386 q 56 604 56 491 q 95 708 56 667 q 196 749 135 749 q 262 727 237 749 q 313 652 288 706 l 336 745 z "},"t":{"ha":401,"x_min":25,"x_max":403,"o":"m 403 275 l 403 14 l 379 107 q 322 16 352 44 q 252 -12 292 -12 q 147 48 182 -12 q 113 231 113 109 q 119 400 113 312 q 140 582 126 488 l 77 582 l 25 454 l 25 734 l 78 610 l 143 610 q 184 833 167 741 q 214 978 202 926 l 123 1031 l 359 1031 l 249 977 q 218 758 229 848 q 203 610 207 668 l 314 610 l 368 734 l 368 458 l 314 582 l 200 582 q 190 434 193 512 q 186 267 186 355 q 204 78 186 134 q 264 21 222 21 q 340 83 307 21 q 403 275 374 146 z "},"u":{"ha":492,"x_min":46,"x_max":486,"o":"m 486 0 l 340 0 l 342 136 q 288 25 319 62 q 215 -12 256 -12 q 95 85 144 -12 q 46 332 46 183 q 75 524 46 437 q 164 685 104 610 l 47 737 l 236 737 q 147 560 175 659 q 119 317 119 461 q 144 92 119 163 q 221 21 168 21 q 307 106 267 21 q 350 310 347 191 l 358 737 l 486 737 l 399 682 l 399 52 l 486 0 z "},"v":{"ha":436,"x_min":-18,"x_max":447,"o":"m 447 710 l 363 656 l 248 0 l 119 0 l 208 50 l 74 682 l -18 737 l 150 737 l 231 75 l 334 656 l 244 710 l 447 710 z "},"w":{"ha":722,"x_min":0,"x_max":722,"o":"m 722 737 l 627 682 l 501 53 l 591 0 l 464 0 l 358 546 l 260 0 l 129 0 l 221 53 l 89 681 l 0 737 l 153 737 l 248 90 l 343 629 l 258 682 l 460 682 l 374 631 l 475 86 l 559 737 l 722 737 z "},"x":{"ha":443,"x_min":-3,"x_max":441,"o":"m 441 0 l 289 0 l 203 292 l 115 74 l 205 25 l 5 25 l 87 74 l 189 335 l 85 688 l -3 737 l 205 737 l 115 690 l 216 408 l 314 656 l 232 704 l 432 704 l 346 653 l 233 368 l 350 49 l 441 0 z "},"y":{"ha":492,"x_min":46,"x_max":486,"o":"m 486 737 l 399 682 l 399 61 q 356 -200 399 -112 q 231 -288 314 -288 q 159 -267 193 -288 q 104 -210 125 -246 l 65 -290 l 65 -45 q 141 -216 105 -170 q 231 -262 178 -262 q 316 -194 291 -262 q 340 52 340 -126 l 340 127 q 287 24 320 61 q 215 -12 254 -12 q 95 85 144 -12 q 46 332 46 183 q 75 524 46 438 q 164 685 103 610 l 47 737 l 236 737 q 147 562 175 658 q 119 326 119 466 q 143 93 119 165 q 221 21 168 21 q 307 106 267 21 q 350 310 347 192 l 358 737 l 486 737 z "},"z":{"ha":435,"x_min":36,"x_max":395,"o":"m 395 737 l 77 26 l 328 26 l 376 322 l 376 0 l 36 0 l 293 710 l 114 710 l 65 410 l 65 737 l 395 737 z "},"{":{"ha":332,"x_min":50,"x_max":310,"o":"m 50 -218 l 233 -183 q 112 11 151 -71 q 74 157 74 94 q 110 298 74 229 q 216 431 146 368 l 64 454 l 224 481 q 116 592 152 530 q 79 728 79 654 q 121 894 79 808 q 252 1082 163 980 l 57 1124 l 310 1124 q 188 906 222 993 q 153 742 153 820 q 192 572 153 644 q 310 454 232 499 q 184 326 224 399 q 144 150 144 252 q 180 -15 144 73 q 293 -218 215 -102 l 50 -218 z "},"|":{"ha":774,"x_min":364,"x_max":410,"o":"m 364 1032 l 410 1032 l 410 -258 l 364 -258 l 364 1032 z "},"}":{"ha":332,"x_min":22,"x_max":282,"o":"m 282 -218 l 37 -218 q 152 -16 116 -104 q 187 150 187 73 q 148 326 187 252 q 22 454 108 399 q 139 571 100 499 q 178 742 178 644 q 143 908 178 821 q 22 1124 108 995 l 273 1124 l 79 1082 q 210 894 168 980 q 252 728 252 808 q 215 592 252 654 q 107 481 179 530 l 268 454 l 115 431 q 222 297 186 366 q 258 157 258 228 q 220 11 258 94 q 98 -183 181 -71 l 282 -218 z "},"~":{"ha":774,"x_min":52,"x_max":722,"o":"m 703 600 l 722 590 q 624 489 680 524 q 510 453 569 453 q 374 488 470 453 q 228 524 278 524 q 153 502 188 524 q 71 421 119 479 l 52 432 q 159 539 110 508 q 268 571 209 571 q 406 537 314 571 q 538 503 498 503 q 627 527 585 503 q 703 600 669 552 z "},"Ä":{"ha":549,"x_min":0,"x_max":547,"o":"m 340 454 l 250 808 l 212 454 l 340 454 m 547 0 l 346 0 l 437 69 l 347 427 l 210 427 l 164 0 l 0 0 l 81 56 l 275 1047 l 464 68 l 547 0 m 304 1182 q 327 1212 304 1200 q 384 1225 349 1225 q 441 1212 418 1225 q 465 1182 465 1200 q 442 1152 465 1164 q 384 1140 419 1140 q 327 1152 349 1140 q 304 1182 304 1164 m 86 1182 q 109 1212 86 1200 q 165 1225 132 1225 q 223 1212 200 1225 q 246 1182 246 1200 q 223 1152 246 1164 q 165 1140 201 1140 q 109 1152 131 1140 q 86 1182 86 1164 z "},"Å":{"ha":549,"x_min":0,"x_max":547,"o":"m 165 1150 q 195 1115 165 1128 q 273 1101 225 1101 q 352 1115 321 1101 q 382 1150 382 1129 q 352 1185 382 1171 q 273 1198 322 1198 q 195 1185 225 1198 q 165 1150 165 1171 m 87 1152 q 140 1210 87 1185 q 273 1234 193 1234 q 407 1210 355 1234 q 460 1152 460 1185 q 408 1093 460 1117 q 273 1069 355 1069 q 140 1093 193 1069 q 87 1152 87 1117 m 340 454 l 250 808 l 212 454 l 340 454 m 547 0 l 346 0 l 437 69 l 347 427 l 210 427 l 164 0 l 0 0 l 81 56 l 275 1047 l 464 68 l 547 0 z "},"Ç":{"ha":454,"x_min":40,"x_max":425,"o":"m 408 1023 l 408 693 q 335 937 376 858 q 243 1017 294 1017 q 154 882 182 1017 q 126 443 126 747 q 151 118 126 216 q 232 20 176 20 q 318 104 284 20 q 351 325 351 189 l 351 411 l 425 411 q 372 126 419 238 q 249 -8 324 15 l 248 -61 q 341 -123 312 -90 q 371 -200 371 -157 q 338 -279 371 -248 q 254 -310 305 -310 q 164 -269 196 -310 q 131 -151 132 -227 l 186 -151 q 201 -252 186 -221 q 249 -282 216 -282 q 294 -256 276 -282 q 311 -187 311 -229 q 290 -128 311 -153 q 210 -71 269 -103 l 212 -8 q 87 156 135 14 q 40 513 40 297 q 101 892 40 741 q 244 1043 161 1043 q 316 1013 286 1043 q 366 925 347 983 l 408 1023 z "},"É":{"ha":461,"x_min":3,"x_max":428,"o":"m 3 0 l 87 54 l 87 982 l 16 1032 l 428 1032 l 349 828 l 349 1006 l 175 1006 l 143 532 l 250 532 l 318 671 l 318 357 l 248 501 l 142 501 l 110 26 l 345 26 l 416 279 l 416 0 l 3 0 m 385 1243 l 203 1108 l 265 1243 l 385 1243 z "},"Ñ":{"ha":525,"x_min":3,"x_max":515,"o":"m 3 0 l 87 54 l 87 982 l 16 1032 l 175 1032 l 358 109 l 412 1032 l 515 1032 l 436 979 l 436 50 l 511 0 l 346 0 l 164 895 l 110 0 l 3 0 m 415 1259 q 376 1168 403 1197 q 305 1140 350 1140 q 252 1155 287 1140 q 199 1169 217 1169 q 151 1156 170 1169 q 110 1108 131 1143 q 149 1204 121 1170 q 215 1238 176 1238 q 275 1222 235 1238 q 333 1207 314 1207 q 382 1219 363 1207 q 415 1259 401 1232 z "},"Ö":{"ha":490,"x_min":40,"x_max":450,"o":"m 126 517 q 153 128 126 233 q 245 24 180 24 q 338 127 311 24 q 364 517 364 230 q 338 906 364 804 q 245 1008 311 1008 q 153 905 180 1008 q 126 517 126 801 m 40 517 q 97 901 40 758 q 245 1043 153 1043 q 394 901 338 1043 q 450 517 450 758 q 394 133 450 275 q 245 -9 338 -9 q 97 133 153 -9 q 40 517 40 275 m 275 1182 q 297 1212 275 1200 q 354 1225 319 1225 q 412 1212 389 1225 q 435 1182 435 1200 q 412 1152 435 1164 q 354 1140 389 1140 q 297 1152 319 1140 q 275 1182 275 1164 m 56 1182 q 79 1212 56 1200 q 136 1225 102 1225 q 193 1212 170 1225 q 216 1182 216 1200 q 194 1152 216 1164 q 136 1140 171 1140 q 79 1152 101 1140 q 56 1182 56 1164 z "},"Ü":{"ha":494,"x_min":41,"x_max":456,"o":"m 252 956 l 456 956 l 363 889 q 428 716 406 805 q 450 534 450 627 q 419 274 450 398 q 334 64 388 150 q 283 10 311 29 q 227 -9 255 -9 q 96 109 151 -9 q 41 404 41 227 q 71 676 41 534 q 157 968 100 819 l 71 1032 l 275 1032 l 184 966 q 138 744 153 867 q 123 440 123 621 q 148 116 123 209 q 228 24 172 24 q 335 190 290 24 q 379 610 379 355 q 368 781 379 714 q 332 892 357 847 l 252 956 m 289 1182 q 311 1212 289 1200 q 368 1225 334 1225 q 426 1212 403 1225 q 449 1182 449 1200 q 426 1152 449 1164 q 368 1140 404 1140 q 311 1152 334 1140 q 289 1182 289 1164 m 71 1182 q 93 1212 71 1200 q 150 1225 116 1225 q 208 1212 184 1225 q 231 1182 231 1200 q 208 1152 231 1164 q 150 1140 185 1140 q 93 1152 115 1140 q 71 1182 71 1164 z "},"á":{"ha":490,"x_min":36,"x_max":485,"o":"m 343 387 q 306 619 343 524 q 220 714 268 714 q 142 626 168 714 q 117 359 117 538 q 139 98 117 173 q 215 24 162 24 q 306 127 268 24 q 343 387 343 230 m 485 0 l 334 0 l 334 127 q 278 23 309 58 q 211 -12 248 -12 q 84 90 132 -12 q 36 366 36 191 q 87 642 36 536 q 218 749 139 749 q 293 701 260 749 q 346 564 326 654 l 358 737 l 479 737 l 393 685 l 393 57 l 485 0 m 399 954 l 218 819 l 280 954 l 399 954 z "},"à":{"ha":490,"x_min":36,"x_max":485,"o":"m 343 387 q 306 619 343 524 q 220 714 268 714 q 142 626 168 714 q 117 359 117 538 q 139 98 117 173 q 215 24 162 24 q 306 127 268 24 q 343 387 343 230 m 485 0 l 334 0 l 334 127 q 278 23 309 58 q 211 -12 248 -12 q 84 90 132 -12 q 36 366 36 191 q 87 642 36 536 q 218 749 139 749 q 293 701 260 749 q 346 564 326 654 l 358 737 l 479 737 l 393 685 l 393 57 l 485 0 m 284 819 l 102 954 l 220 954 l 284 819 z "},"â":{"ha":490,"x_min":36,"x_max":485,"o":"m 343 387 q 306 619 343 524 q 220 714 268 714 q 142 626 168 714 q 117 359 117 538 q 139 98 117 173 q 215 24 162 24 q 306 127 268 24 q 343 387 343 230 m 485 0 l 334 0 l 334 127 q 278 23 309 58 q 211 -12 248 -12 q 84 90 132 -12 q 36 366 36 191 q 87 642 36 536 q 218 749 139 749 q 293 701 260 749 q 346 564 326 654 l 358 737 l 479 737 l 393 685 l 393 57 l 485 0 m 363 823 l 247 888 l 126 823 l 214 962 l 283 962 l 363 823 z "},"ä":{"ha":490,"x_min":36,"x_max":485,"o":"m 343 387 q 306 619 343 524 q 220 714 268 714 q 142 626 168 714 q 117 359 117 538 q 139 98 117 173 q 215 24 162 24 q 306 127 268 24 q 343 387 343 230 m 485 0 l 334 0 l 334 127 q 278 23 309 58 q 211 -12 248 -12 q 84 90 132 -12 q 36 366 36 191 q 87 642 36 536 q 218 749 139 749 q 293 701 260 749 q 346 564 326 654 l 358 737 l 479 737 l 393 685 l 393 57 l 485 0 m 275 893 q 297 923 275 911 q 354 936 319 936 q 412 923 389 936 q 435 893 435 911 q 412 863 435 876 q 354 851 389 851 q 297 863 319 851 q 275 893 275 876 m 56 893 q 79 923 56 911 q 136 936 102 936 q 193 923 170 936 q 216 893 216 911 q 194 863 216 876 q 136 851 171 851 q 79 863 101 851 q 56 893 56 876 z "},"ã":{"ha":490,"x_min":36,"x_max":485,"o":"m 343 387 q 306 619 343 524 q 220 714 268 714 q 142 626 168 714 q 117 359 117 538 q 139 98 117 173 q 215 24 162 24 q 306 127 268 24 q 343 387 343 230 m 485 0 l 334 0 l 334 127 q 278 23 309 58 q 211 -12 248 -12 q 84 90 132 -12 q 36 366 36 191 q 87 642 36 536 q 218 749 139 749 q 293 701 260 749 q 346 564 326 654 l 358 737 l 479 737 l 393 685 l 393 57 l 485 0 m 398 970 q 359 880 386 908 q 288 851 333 851 q 235 866 270 851 q 182 880 200 880 q 134 867 153 880 q 93 819 114 854 q 132 915 104 881 q 198 949 159 949 q 258 933 218 949 q 316 918 297 918 q 365 930 346 918 q 398 970 385 943 z "},"å":{"ha":490,"x_min":36,"x_max":485,"o":"m 142 888 q 170 854 142 867 q 244 842 199 842 q 319 854 290 842 q 347 888 347 867 q 319 921 347 908 q 244 935 290 935 q 170 921 199 935 q 142 888 142 908 m 68 889 q 118 945 68 922 q 244 968 168 968 q 371 945 321 968 q 421 889 421 922 q 372 833 421 856 q 244 811 322 811 q 118 834 168 811 q 68 889 68 857 m 343 387 q 306 619 343 524 q 220 714 268 714 q 142 626 168 714 q 117 359 117 538 q 139 98 117 173 q 215 24 162 24 q 306 127 268 24 q 343 387 343 230 m 485 0 l 334 0 l 334 127 q 278 23 309 58 q 211 -12 248 -12 q 84 90 132 -12 q 36 366 36 191 q 87 642 36 536 q 218 749 139 749 q 293 701 260 749 q 346 564 326 654 l 358 737 l 479 737 l 393 685 l 393 57 l 485 0 z "},"ç":{"ha":403,"x_min":36,"x_max":378,"o":"m 357 758 l 357 429 q 298 640 335 566 q 216 714 262 714 q 142 619 168 714 q 117 346 117 524 q 141 101 117 178 q 218 24 165 24 q 282 72 264 24 q 300 258 300 119 l 300 285 l 378 285 q 327 70 364 144 q 228 -11 289 -4 l 225 -58 q 315 -118 287 -87 q 343 -191 343 -149 q 312 -266 343 -236 q 233 -296 281 -296 q 149 -257 179 -296 q 115 -143 119 -218 l 170 -143 q 183 -239 170 -210 q 228 -268 197 -268 q 271 -243 254 -268 q 288 -179 288 -218 q 267 -122 288 -146 q 191 -66 247 -98 l 195 -9 q 78 105 121 7 q 36 359 36 203 q 88 641 36 533 q 221 749 140 749 q 281 720 254 749 q 330 636 309 692 l 357 758 z "},"é":{"ha":397,"x_min":36,"x_max":375,"o":"m 300 410 l 300 456 q 275 645 300 575 q 210 714 251 714 q 137 638 163 714 q 107 410 111 562 l 300 410 m 375 382 l 107 382 q 133 104 107 184 q 221 24 159 24 q 292 86 260 24 q 354 288 323 148 l 354 3 l 328 104 q 276 15 302 43 q 215 -12 249 -12 q 85 89 134 -12 q 36 361 36 190 q 87 639 36 529 q 210 749 138 749 q 325 654 275 749 q 375 427 375 559 l 375 382 m 362 954 l 180 819 l 243 954 l 362 954 z "},"è":{"ha":397,"x_min":36,"x_max":375,"o":"m 300 410 l 300 456 q 275 645 300 575 q 210 714 251 714 q 137 638 163 714 q 107 410 111 562 l 300 410 m 375 382 l 107 382 q 133 104 107 184 q 221 24 159 24 q 292 86 260 24 q 354 288 323 148 l 354 3 l 328 104 q 276 15 302 43 q 215 -12 249 -12 q 85 89 134 -12 q 36 361 36 190 q 87 639 36 529 q 210 749 138 749 q 325 654 275 749 q 375 427 375 559 l 375 382 m 247 819 l 65 954 l 183 954 l 247 819 z "},"ê":{"ha":397,"x_min":36,"x_max":375,"o":"m 300 410 l 300 456 q 275 645 300 575 q 210 714 251 714 q 137 638 163 714 q 107 410 111 562 l 300 410 m 375 382 l 107 382 q 133 104 107 184 q 221 24 159 24 q 292 86 260 24 q 354 288 323 148 l 354 3 l 328 104 q 276 15 302 43 q 215 -12 249 -12 q 85 89 134 -12 q 36 361 36 190 q 87 639 36 529 q 210 749 138 749 q 325 654 275 749 q 375 427 375 559 l 375 382 m 326 823 l 210 888 l 89 823 l 176 962 l 245 962 l 326 823 z "},"ë":{"ha":397,"x_min":19,"x_max":397,"o":"m 300 410 l 300 456 q 275 645 300 575 q 210 714 251 714 q 137 638 163 714 q 107 410 111 562 l 300 410 m 375 382 l 107 382 q 133 104 107 184 q 221 24 159 24 q 292 86 260 24 q 354 288 323 148 l 354 3 l 328 104 q 276 15 302 43 q 215 -12 249 -12 q 85 89 134 -12 q 36 361 36 190 q 87 639 36 529 q 210 749 138 749 q 325 654 275 749 q 375 427 375 559 l 375 382 m 237 893 q 260 923 237 911 q 317 936 282 936 q 374 923 351 936 q 397 893 397 911 q 375 863 397 876 q 317 851 352 851 q 260 863 282 851 q 237 893 237 876 m 19 893 q 42 923 19 911 q 98 936 64 936 q 156 923 133 936 q 179 893 179 911 q 156 863 179 876 q 98 851 134 851 q 41 863 64 851 q 19 893 19 876 z "},"í":{"ha":310,"x_min":4,"x_max":309,"o":"m 39 0 l 142 54 l 117 684 l 4 737 l 306 737 l 191 684 l 171 54 l 269 0 l 39 0 m 309 954 l 127 819 l 190 954 l 309 954 z "},"ì":{"ha":310,"x_min":4,"x_max":306,"o":"m 39 0 l 142 54 l 117 684 l 4 737 l 306 737 l 191 684 l 171 54 l 269 0 l 39 0 m 194 819 l 12 954 l 130 954 l 194 819 z "},"î":{"ha":310,"x_min":4,"x_max":306,"o":"m 39 0 l 142 54 l 117 684 l 4 737 l 306 737 l 191 684 l 171 54 l 269 0 l 39 0 m 273 823 l 157 888 l 36 823 l 123 962 l 193 962 l 273 823 z "},"ï":{"ha":310,"x_min":-34,"x_max":345,"o":"m 39 0 l 142 54 l 117 684 l 4 737 l 306 737 l 191 684 l 171 54 l 269 0 l 39 0 m 184 893 q 207 923 184 911 q 264 936 229 936 q 321 923 298 936 q 345 893 345 911 q 322 863 345 876 q 264 851 299 851 q 207 863 229 851 q 184 893 184 876 m -34 893 q -11 923 -34 911 q 45 936 12 936 q 103 923 80 936 q 126 893 126 911 q 103 863 126 876 q 45 851 81 851 q -12 863 11 851 q -34 893 -34 876 z "},"ñ":{"ha":492,"x_min":4,"x_max":446,"o":"m 4 0 l 90 54 l 90 686 l 4 737 l 131 737 l 136 546 q 194 696 157 643 q 277 749 231 749 q 397 652 348 749 q 446 406 446 555 q 417 214 446 300 q 328 53 389 127 l 444 0 l 256 0 q 345 177 317 79 q 372 416 372 274 q 348 643 372 569 q 272 717 323 717 q 181 609 222 717 q 140 351 140 502 q 148 178 140 267 q 170 0 155 90 l 4 0 m 398 970 q 359 880 386 908 q 288 851 333 851 q 235 866 270 851 q 182 880 200 880 q 134 867 153 880 q 93 819 114 854 q 132 915 104 881 q 198 949 159 949 q 258 933 218 949 q 316 918 297 918 q 365 930 346 918 q 398 970 385 943 z "},"ó":{"ha":406,"x_min":36,"x_max":370,"o":"m 201 715 q 130 632 154 715 q 106 387 106 549 q 130 115 106 207 q 201 22 154 22 q 275 116 250 22 q 300 387 300 210 q 275 632 300 549 q 201 715 250 715 m 203 749 q 322 643 274 749 q 370 371 370 537 q 323 93 370 199 q 203 -12 276 -12 q 83 94 130 -12 q 36 371 36 200 q 84 643 36 536 q 203 749 132 749 m 357 954 l 175 819 l 237 954 l 357 954 z "},"ò":{"ha":406,"x_min":36,"x_max":370,"o":"m 201 715 q 130 632 154 715 q 106 387 106 549 q 130 115 106 207 q 201 22 154 22 q 275 116 250 22 q 300 387 300 210 q 275 632 300 549 q 201 715 250 715 m 203 749 q 322 643 274 749 q 370 371 370 537 q 323 93 370 199 q 203 -12 276 -12 q 83 94 130 -12 q 36 371 36 200 q 84 643 36 536 q 203 749 132 749 m 241 819 l 60 954 l 178 954 l 241 819 z "},"ô":{"ha":406,"x_min":36,"x_max":370,"o":"m 201 715 q 130 632 154 715 q 106 387 106 549 q 130 115 106 207 q 201 22 154 22 q 275 116 250 22 q 300 387 300 210 q 275 632 300 549 q 201 715 250 715 m 203 749 q 322 643 274 749 q 370 371 370 537 q 323 93 370 199 q 203 -12 276 -12 q 83 94 130 -12 q 36 371 36 200 q 84 643 36 536 q 203 749 132 749 m 321 823 l 204 888 l 83 823 l 171 962 l 240 962 l 321 823 z "},"ö":{"ha":406,"x_min":14,"x_max":392,"o":"m 201 715 q 130 632 154 715 q 106 387 106 549 q 130 115 106 207 q 201 22 154 22 q 275 116 250 22 q 300 387 300 210 q 275 632 300 549 q 201 715 250 715 m 203 749 q 322 643 274 749 q 370 371 370 537 q 323 93 370 199 q 203 -12 276 -12 q 83 94 130 -12 q 36 371 36 200 q 84 643 36 536 q 203 749 132 749 m 232 893 q 254 923 232 911 q 311 936 277 936 q 369 923 346 936 q 392 893 392 911 q 369 863 392 876 q 311 851 347 851 q 254 863 277 851 q 232 893 232 876 m 14 893 q 36 923 14 911 q 93 936 59 936 q 151 923 127 936 q 174 893 174 911 q 151 863 174 876 q 93 851 128 851 q 36 863 58 851 q 14 893 14 876 z "},"õ":{"ha":406,"x_min":36,"x_max":370,"o":"m 201 715 q 130 632 154 715 q 106 387 106 549 q 130 115 106 207 q 201 22 154 22 q 275 116 250 22 q 300 387 300 210 q 275 632 300 549 q 201 715 250 715 m 203 749 q 322 643 274 749 q 370 371 370 537 q 323 93 370 199 q 203 -12 276 -12 q 83 94 130 -12 q 36 371 36 200 q 84 643 36 536 q 203 749 132 749 m 355 970 q 317 880 343 908 q 245 851 290 851 q 192 866 227 851 q 139 880 157 880 q 91 867 111 880 q 50 819 71 854 q 89 915 61 881 q 155 949 117 949 q 215 933 176 949 q 273 918 254 918 q 322 930 303 918 q 355 970 342 943 z "},"ú":{"ha":492,"x_min":46,"x_max":486,"o":"m 486 0 l 340 0 l 342 136 q 288 25 319 62 q 215 -12 256 -12 q 95 85 144 -12 q 46 332 46 183 q 75 524 46 437 q 164 685 104 610 l 47 737 l 236 737 q 147 560 175 659 q 119 317 119 461 q 144 92 119 163 q 221 21 168 21 q 307 106 267 21 q 350 310 347 191 l 358 737 l 486 737 l 399 682 l 399 52 l 486 0 m 429 954 l 248 819 l 310 954 l 429 954 z "},"ù":{"ha":492,"x_min":46,"x_max":486,"o":"m 486 0 l 340 0 l 342 136 q 288 25 319 62 q 215 -12 256 -12 q 95 85 144 -12 q 46 332 46 183 q 75 524 46 437 q 164 685 104 610 l 47 737 l 236 737 q 147 560 175 659 q 119 317 119 461 q 144 92 119 163 q 221 21 168 21 q 307 106 267 21 q 350 310 347 191 l 358 737 l 486 737 l 399 682 l 399 52 l 486 0 m 314 819 l 132 954 l 250 954 l 314 819 z "},"û":{"ha":492,"x_min":46,"x_max":486,"o":"m 486 0 l 340 0 l 342 136 q 288 25 319 62 q 215 -12 256 -12 q 95 85 144 -12 q 46 332 46 183 q 75 524 46 437 q 164 685 104 610 l 47 737 l 236 737 q 147 560 175 659 q 119 317 119 461 q 144 92 119 163 q 221 21 168 21 q 307 106 267 21 q 350 310 347 191 l 358 737 l 486 737 l 399 682 l 399 52 l 486 0 m 393 823 l 277 888 l 156 823 l 243 962 l 313 962 l 393 823 z "},"ü":{"ha":492,"x_min":46,"x_max":486,"o":"m 486 0 l 340 0 l 342 136 q 288 25 319 62 q 215 -12 256 -12 q 95 85 144 -12 q 46 332 46 183 q 75 524 46 437 q 164 685 104 610 l 47 737 l 236 737 q 147 560 175 659 q 119 317 119 461 q 144 92 119 163 q 221 21 168 21 q 307 106 267 21 q 350 310 347 191 l 358 737 l 486 737 l 399 682 l 399 52 l 486 0 m 304 893 q 327 923 304 911 q 384 936 349 936 q 441 923 418 936 q 465 893 465 911 q 442 863 465 876 q 384 851 419 851 q 327 863 349 851 q 304 893 304 876 m 86 893 q 109 923 86 911 q 165 936 132 936 q 223 923 200 936 q 246 893 246 911 q 223 863 246 876 q 165 851 201 851 q 109 863 131 851 q 86 893 86 876 z "},"†":{"ha":472,"x_min":29,"x_max":443,"o":"m 443 493 l 390 619 l 269 619 l 252 -100 l 364 -151 l 113 -151 l 221 -100 l 204 619 l 78 619 l 29 486 l 29 772 l 78 646 l 204 646 l 197 982 l 113 1032 l 367 1032 l 279 982 l 269 646 l 390 646 l 443 772 l 443 493 z "},"°":{"ha":743,"x_min":199,"x_max":545,"o":"m 239 872 q 277 780 239 817 q 371 742 315 742 q 465 780 426 742 q 504 872 504 818 q 465 965 504 926 q 371 1004 426 1004 q 277 966 315 1004 q 239 872 239 928 m 199 873 q 249 992 199 943 q 371 1042 299 1042 q 494 992 443 1042 q 545 873 545 943 q 494 753 545 803 q 371 704 443 704 q 249 754 299 704 q 199 873 199 804 z "},"¢":{"ha":407,"x_min":33,"x_max":372,"o":"m 221 863 l 215 863 q 136 768 163 863 q 109 490 109 673 q 123 293 109 369 q 167 187 138 218 l 221 863 m 294 431 l 372 431 q 318 210 359 284 q 212 135 278 135 q 198 135 204 135 q 186 136 191 136 l 180 56 l 254 0 l 77 0 l 155 56 l 161 144 q 66 272 98 180 q 33 505 33 363 q 85 787 33 680 q 220 895 138 895 l 222 895 l 229 981 l 157 1032 l 329 1032 l 254 981 l 248 888 q 291 848 273 873 q 325 782 310 823 l 351 904 l 351 575 q 307 757 334 687 q 244 852 280 827 l 191 172 q 197 172 192 172 q 218 170 211 170 q 277 219 260 170 q 294 404 294 268 l 294 431 z "},"£":{"ha":486,"x_min":43,"x_max":453,"o":"m 453 0 l 43 0 l 43 239 l 106 31 q 172 119 152 72 q 192 235 192 165 q 183 340 192 274 q 154 517 174 406 l 100 517 l 49 390 l 49 671 l 102 543 l 149 543 q 126 688 134 623 q 118 802 118 753 q 157 981 118 918 q 271 1043 197 1043 q 350 1013 314 1043 q 408 928 386 983 l 433 1019 l 433 754 q 366 943 401 881 q 288 1004 330 1004 q 215 947 241 1004 q 189 787 189 890 q 214 559 189 730 q 217 543 216 549 l 300 543 l 350 671 l 350 395 l 300 517 l 221 517 q 239 379 233 437 q 245 282 245 320 q 222 132 245 192 q 144 28 198 73 l 387 28 l 453 335 l 453 0 z "},"§":{"ha":457,"x_min":41,"x_max":431,"o":"m 221 325 q 314 375 288 339 q 340 496 340 412 q 312 624 340 583 q 208 694 284 665 q 150 635 172 678 q 129 532 129 591 q 150 402 129 449 q 221 325 172 355 m 392 1050 l 391 755 q 387 769 390 759 q 225 1015 302 1015 q 170 987 188 1015 q 151 900 151 958 q 170 787 151 825 q 233 720 188 748 q 288 687 252 707 q 431 500 431 604 q 388 369 431 416 q 258 306 346 321 q 364 232 334 269 q 393 142 393 196 q 349 30 393 71 q 231 -12 304 -12 q 163 7 191 -12 q 117 65 136 26 l 69 -32 l 69 282 q 81 247 74 269 q 225 20 158 20 q 285 46 266 20 q 304 127 304 72 q 287 225 304 189 q 232 282 270 261 q 197 301 220 289 q 41 505 41 383 q 75 635 41 583 q 175 711 109 687 q 89 781 114 743 q 64 878 64 819 q 107 999 64 955 q 225 1043 150 1043 q 297 1017 267 1043 q 349 936 328 991 l 392 1050 z "},"•":{"ha":1032,"x_min":330,"x_max":701,"o":"m 517 703 q 648 649 594 703 q 701 517 701 595 q 648 384 701 438 q 517 330 595 330 q 385 385 439 330 q 330 517 330 439 q 385 648 330 594 q 517 703 439 703 z "},"¶":{"ha":566,"x_min":12,"x_max":562,"o":"m 319 1006 l 298 1006 q 153 934 201 1006 q 104 717 104 862 q 143 546 104 602 q 261 490 181 490 l 296 490 l 319 1006 m 562 -155 l 397 -155 l 397 1006 l 345 1006 l 345 -155 l 178 -155 l 268 -107 l 294 468 l 244 468 q 71 530 130 468 q 12 714 12 593 q 94 947 12 861 q 317 1032 176 1032 l 510 1032 l 425 982 l 465 -103 l 562 -155 z "},"ß":{"ha":538,"x_min":50,"x_max":494,"o":"m 53 0 l 142 61 q 73 432 95 273 q 50 704 50 590 q 104 957 50 871 q 264 1043 159 1043 q 422 971 359 1043 q 486 791 486 899 q 459 650 486 710 q 379 555 432 590 q 464 475 434 530 q 494 343 494 419 q 425 131 494 226 q 235 -7 355 37 l 235 243 l 278 32 q 387 166 351 85 q 424 353 424 247 q 397 493 424 446 q 317 543 370 541 l 264 454 l 264 653 l 315 568 q 394 619 368 570 q 421 761 421 667 q 379 948 421 880 q 265 1015 338 1015 q 164 939 199 1015 q 129 718 129 862 q 141 354 129 534 q 178 0 153 174 l 53 0 z "},"®":{"ha":376,"x_min":46,"x_max":351,"o":"m 199 993 q 306 948 261 993 q 351 840 351 903 q 306 732 351 777 q 196 688 260 688 q 91 733 136 688 q 46 843 46 779 q 91 948 46 903 q 199 993 136 993 m 199 970 q 107 931 145 970 q 69 840 69 893 q 107 750 69 788 q 199 711 146 711 q 291 749 252 711 q 329 840 329 787 q 291 932 329 895 q 199 970 253 970 m 138 922 l 197 922 q 250 911 233 922 q 267 875 267 899 q 258 847 267 859 q 233 831 249 836 l 268 758 l 229 758 l 197 825 l 174 825 l 174 758 l 138 758 l 138 922 m 174 897 l 174 850 l 197 850 q 223 855 215 850 q 231 872 231 861 q 222 891 231 885 q 196 897 214 897 l 174 897 z "},"©":{"ha":376,"x_min":46,"x_max":351,"o":"m 199 993 q 306 948 261 993 q 351 840 351 903 q 306 732 351 777 q 196 688 260 688 q 91 733 136 688 q 46 843 46 779 q 91 948 46 903 q 199 993 136 993 m 199 970 q 107 931 145 970 q 69 840 69 893 q 107 750 69 788 q 199 711 146 711 q 291 749 252 711 q 329 840 329 787 q 291 932 329 895 q 199 970 253 970 m 269 873 l 233 873 q 222 896 231 888 q 200 904 214 904 q 171 888 181 904 q 161 842 161 872 q 171 796 161 812 q 200 781 181 781 q 223 790 214 781 q 233 814 233 799 l 271 814 q 251 766 271 784 q 197 747 231 747 q 141 773 162 747 q 121 842 121 798 q 143 907 121 882 q 201 932 165 932 q 250 916 232 932 q 269 873 269 900 z "},"™":{"ha":406,"x_min":9,"x_max":374,"o":"m 9 981 l 151 981 l 151 947 l 102 947 l 102 815 l 61 815 l 61 947 l 9 947 l 9 981 m 184 981 l 241 981 l 281 880 l 317 981 l 374 981 l 374 815 l 335 815 l 335 939 l 289 815 l 271 815 l 224 939 l 224 815 l 184 815 l 184 981 z "},"´":{"ha":694,"x_min":319,"x_max":501,"o":"m 501 954 l 319 819 l 382 954 l 501 954 z "},"¨":{"ha":694,"x_min":158,"x_max":536,"o":"m 376 893 q 399 923 376 911 q 456 936 421 936 q 513 923 490 936 q 536 893 536 911 q 514 863 536 876 q 456 851 491 851 q 399 863 421 851 q 376 893 376 876 m 158 893 q 181 923 158 911 q 237 936 203 936 q 295 923 272 936 q 318 893 318 911 q 295 863 318 876 q 237 851 273 851 q 180 863 203 851 q 158 893 158 876 z "},"≠":{"ha":1157,"x_min":172,"x_max":985,"o":"m 825 785 l 868 751 l 721 564 l 985 564 l 985 510 l 686 510 l 538 318 l 985 318 l 985 262 l 503 262 l 330 43 l 289 75 l 435 262 l 172 262 l 172 318 l 468 318 l 618 510 l 172 510 l 172 564 l 653 564 l 825 785 z "},"Æ":{"ha":794,"x_min":-31,"x_max":757,"o":"m 415 454 l 415 918 l 272 454 l 415 454 m 757 1032 l 677 828 l 677 1006 l 501 1006 l 471 532 l 579 532 l 647 671 l 647 357 l 576 501 l 468 501 l 436 26 l 673 26 l 746 279 l 746 0 l 329 0 l 415 54 l 415 427 l 264 427 l 131 0 l -31 0 l 53 57 l 415 990 l 343 1032 l 757 1032 z "},"Ø":{"ha":490,"x_min":40,"x_max":450,"o":"m 293 993 q 271 1005 283 1001 q 245 1008 260 1008 q 153 905 180 1008 q 126 517 126 801 q 138 210 126 315 q 178 62 151 106 l 293 993 m 201 36 q 222 27 211 30 q 245 24 233 24 q 338 127 311 24 q 364 517 364 230 q 353 814 364 709 q 317 964 341 919 l 201 36 m 227 1181 l 428 1181 l 336 1129 l 322 1011 q 418 824 386 949 q 450 517 450 700 q 394 133 450 275 q 245 -9 338 -9 q 220 -7 232 -9 q 199 1 209 -4 l 184 -107 l 271 -155 l 62 -155 l 158 -103 l 174 17 q 75 201 109 73 q 40 517 40 329 q 97 900 40 758 q 245 1043 154 1043 q 272 1040 259 1043 q 297 1029 284 1036 l 310 1129 l 227 1181 z "},"∞":{"ha":1141,"x_min":87,"x_max":1053,"o":"m 542 497 q 417 647 479 599 q 289 696 355 696 q 169 647 216 696 q 122 522 122 597 q 175 390 122 440 q 315 339 229 339 q 439 376 387 339 q 542 497 492 413 m 590 545 q 716 390 653 440 q 848 339 780 339 q 969 389 920 339 q 1018 514 1018 439 q 964 646 1018 595 q 825 696 911 696 q 694 661 748 696 q 590 545 640 626 m 555 476 q 445 325 503 373 q 314 277 387 277 q 154 346 220 277 q 87 514 87 414 q 156 688 87 616 q 319 761 224 761 q 450 715 389 761 q 578 564 510 669 q 696 715 638 670 q 828 761 754 761 q 986 690 919 761 q 1053 519 1053 620 q 983 348 1053 419 q 817 277 913 277 q 681 326 745 277 q 555 476 617 374 z "},"±":{"ha":1157,"x_min":172,"x_max":985,"o":"m 172 96 l 985 96 l 985 40 l 172 40 l 172 96 m 551 787 l 606 787 l 606 547 l 985 547 l 985 493 l 606 493 l 606 254 l 551 254 l 551 493 l 172 493 l 172 547 l 551 547 l 551 787 z "},"≤":{"ha":1157,"x_min":179,"x_max":978,"o":"m 179 87 l 978 87 l 978 33 l 179 33 l 179 87 m 978 794 l 978 734 l 271 497 l 978 258 l 978 199 l 179 473 l 179 521 l 978 794 z "},"≥":{"ha":1157,"x_min":179,"x_max":978,"o":"m 179 87 l 978 87 l 978 33 l 179 33 l 179 87 m 179 794 l 978 521 l 978 473 l 179 199 l 179 258 l 886 497 l 179 734 l 179 794 z "},"¥":{"ha":509,"x_min":9,"x_max":524,"o":"m 524 1006 l 449 947 l 272 463 l 403 463 l 457 590 l 457 296 l 407 435 l 264 435 l 302 50 l 375 0 l 119 0 l 196 50 l 236 435 l 96 435 l 50 309 l 50 586 l 96 463 l 231 463 l 96 966 l 9 1032 l 216 1032 l 125 961 l 285 561 l 412 936 l 322 1006 l 524 1006 z "},"µ":{"ha":492,"x_min":14,"x_max":486,"o":"m 486 0 l 340 0 l 342 136 q 289 26 320 64 q 218 -12 257 -12 q 149 25 178 -12 q 100 136 119 62 l 180 -294 l 14 -294 l 100 -241 l 77 -17 q 64 96 73 22 q 46 332 46 265 q 75 524 46 437 q 164 685 104 610 l 47 737 l 236 737 q 147 561 175 659 q 119 321 119 463 q 144 93 119 165 q 221 21 168 21 q 307 106 267 21 q 350 310 347 191 l 358 737 l 486 737 l 399 682 l 399 52 l 486 0 z "},"∂":{"ha":694,"x_min":92,"x_max":610,"o":"m 509 392 q 520 490 516 439 q 524 599 524 541 q 498 780 524 720 q 419 839 472 839 q 352 789 389 839 q 278 739 315 739 q 245 752 258 739 q 232 783 232 764 q 273 852 232 823 q 374 882 315 882 q 546 782 482 882 q 610 510 610 682 q 520 132 610 283 q 301 -18 431 -18 q 149 53 207 -18 q 92 243 92 124 q 164 444 92 360 q 339 528 237 528 q 447 494 405 528 q 509 392 488 461 m 484 311 q 452 440 484 396 q 358 485 420 485 q 229 400 279 485 q 179 176 179 315 q 211 55 179 97 q 304 12 243 12 q 433 97 382 12 q 484 311 484 182 z "},"∑":{"ha":1032,"x_min":119,"x_max":950,"o":"m 119 1032 l 888 1032 l 888 798 l 860 798 q 804 956 853 916 q 590 997 755 997 l 225 997 l 554 366 l 195 -313 l 604 -313 q 833 -263 768 -313 q 924 -83 898 -214 l 950 -83 l 899 -361 l 119 -361 l 486 332 l 119 1032 z "},"∏":{"ha":1061,"x_min":78,"x_max":983,"o":"m 78 1032 l 983 1032 l 983 1003 l 950 1003 q 861 983 880 1003 q 842 873 842 964 l 842 -201 q 862 -312 842 -292 q 950 -332 882 -332 l 983 -332 l 983 -361 l 633 -361 l 633 -332 l 667 -332 q 754 -312 734 -332 q 774 -201 774 -292 l 774 876 q 756 978 774 961 q 669 996 738 996 l 393 996 q 306 978 324 996 q 288 875 288 961 l 288 -201 q 307 -311 288 -290 q 395 -332 327 -332 l 428 -332 l 428 -361 l 78 -361 l 78 -332 l 111 -332 q 200 -312 180 -332 q 220 -201 220 -292 l 220 873 q 200 983 220 964 q 111 1003 180 1003 l 78 1003 l 78 1032 z "},"∫":{"ha":774,"x_min":79,"x_max":694,"o":"m 419 921 l 419 184 q 367 -148 419 -37 q 208 -258 314 -258 q 117 -219 155 -258 q 79 -122 79 -179 q 93 -74 79 -92 q 131 -57 106 -57 q 167 -71 155 -57 q 179 -113 179 -85 q 174 -138 179 -118 q 168 -174 168 -158 q 182 -202 168 -191 q 218 -214 197 -214 q 315 -125 276 -214 q 354 103 354 -37 l 354 847 q 407 1180 354 1069 q 566 1291 459 1291 q 657 1251 619 1291 q 694 1154 694 1211 q 681 1106 694 1123 q 643 1089 667 1089 q 607 1102 620 1089 q 595 1140 595 1116 q 600 1169 595 1148 q 606 1206 606 1190 q 591 1234 606 1222 q 555 1246 577 1246 q 457 1156 496 1246 q 419 921 419 1066 z "},"ª":{"ha":329,"x_min":35,"x_max":325,"o":"m 151 785 q 106 735 121 785 q 92 579 92 685 q 105 430 92 475 q 147 385 118 385 q 198 445 176 385 q 220 596 220 505 q 198 729 220 673 q 151 785 176 785 m 325 363 l 214 363 l 214 418 q 182 371 199 387 q 144 355 165 355 q 65 417 95 355 q 35 583 35 479 q 67 750 35 686 q 149 814 99 814 q 191 792 172 814 q 224 728 210 770 l 229 807 l 321 807 l 258 768 l 258 403 l 325 363 z "},"º":{"ha":279,"x_min":36,"x_max":243,"o":"m 139 782 q 99 735 113 782 q 86 596 86 688 q 100 440 86 494 q 139 386 113 386 q 179 440 165 386 q 193 596 193 495 q 179 734 193 687 q 139 782 165 782 m 139 814 q 213 751 182 814 q 243 593 243 688 q 214 420 243 484 q 139 355 186 355 q 64 419 92 355 q 36 593 36 484 q 66 752 36 690 q 139 814 96 814 z "},"Ω":{"ha":1279,"x_min":109,"x_max":1171,"o":"m 1171 160 l 1111 0 l 701 0 l 701 43 q 966 247 873 116 q 1059 546 1059 378 q 1046 657 1059 602 q 1011 761 1034 711 q 861 949 953 887 q 639 1011 768 1011 q 462 974 541 1011 q 328 865 382 937 q 248 715 275 796 q 221 549 221 635 q 314 246 221 378 q 576 43 407 114 l 576 0 l 167 0 l 109 160 l 135 160 q 196 73 155 98 q 328 47 237 48 l 489 45 l 489 52 q 234 250 326 118 q 142 547 142 382 q 158 673 142 612 q 204 787 174 735 q 389 988 283 923 q 639 1053 495 1053 q 834 1016 745 1053 q 989 909 923 980 q 1099 741 1061 833 q 1137 549 1137 648 q 1046 253 1137 384 q 789 52 954 123 l 789 45 l 954 47 q 1083 73 1043 48 q 1143 160 1123 98 l 1171 160 z "},"æ":{"ha":688,"x_min":36,"x_max":665,"o":"m 218 714 q 141 628 166 714 q 117 359 117 541 q 138 98 117 172 q 212 24 160 24 q 305 127 267 24 q 343 387 343 230 q 304 618 343 522 q 218 714 265 714 m 590 410 l 590 456 q 566 645 590 575 q 500 714 541 714 q 428 638 453 714 q 399 410 403 562 l 590 410 m 665 382 l 399 382 l 399 366 q 425 103 399 183 q 511 24 452 24 q 582 84 551 24 q 644 288 613 145 l 644 3 l 618 104 q 568 17 595 45 q 509 -12 541 -12 q 432 24 465 -12 q 382 125 399 60 l 382 0 l 343 0 l 329 127 q 276 24 307 60 q 208 -12 244 -12 q 84 90 132 -12 q 36 366 36 193 q 87 641 36 532 q 211 749 138 749 q 288 700 254 749 q 342 564 323 652 l 346 737 l 382 737 l 382 595 q 427 711 397 673 q 501 749 456 749 q 615 653 564 749 q 665 427 665 558 l 665 382 z "},"ø":{"ha":406,"x_min":36,"x_max":368,"o":"m 175 31 q 188 24 181 26 q 201 22 194 22 q 275 115 250 22 q 300 387 300 208 q 289 568 300 494 q 254 681 277 641 l 175 31 m 231 707 q 218 713 224 711 q 204 715 212 715 q 130 634 155 715 q 106 387 106 552 q 117 179 106 263 q 151 58 129 96 l 231 707 m 164 880 l 364 880 l 273 831 l 260 728 q 339 591 311 686 q 368 370 368 497 q 322 93 368 197 q 203 -12 275 -12 q 188 -11 196 -12 q 171 -6 180 -9 l 158 -107 l 243 -155 l 36 -155 l 132 -103 l 146 8 q 64 145 93 49 q 36 382 36 241 q 85 645 36 541 q 203 749 134 749 q 220 747 212 749 q 235 742 227 745 l 245 831 l 164 880 z "},"¿":{"ha":501,"x_min":49,"x_max":454,"o":"m 361 994 q 332 959 361 973 q 257 945 302 945 q 181 959 212 945 q 151 994 151 974 q 181 1029 151 1015 q 257 1043 211 1043 q 332 1029 302 1043 q 361 994 361 1015 m 454 414 l 454 43 l 407 134 q 336 23 372 58 q 260 -12 300 -12 q 112 78 174 -12 q 49 296 49 168 q 100 484 49 410 q 244 578 151 558 l 244 848 l 129 901 l 380 901 l 267 846 l 318 558 l 300 558 q 165 496 209 558 q 121 307 121 435 q 161 101 121 183 q 258 18 201 18 q 365 112 318 18 q 454 414 412 206 z "},"¡":{"ha":272,"x_min":7,"x_max":265,"o":"m 245 996 q 216 961 245 975 q 142 946 186 946 q 67 960 96 946 q 37 996 37 975 q 66 1031 37 1017 q 142 1044 95 1044 q 217 1031 189 1044 q 245 996 245 1017 m 7 0 l 89 52 l 123 856 l 18 907 l 265 907 l 154 856 l 183 56 l 265 0 l 7 0 z "},"¬":{"ha":774,"x_min":50,"x_max":688,"o":"m 632 0 l 632 368 l 50 368 l 50 412 l 688 412 l 688 0 l 632 0 z "},"√":{"ha":781,"x_min":-9,"x_max":972,"o":"m 972 1275 l 972 1239 l 781 1239 l 493 0 l 408 0 l 272 564 l -9 564 l -9 600 l 345 600 l 467 79 l 747 1275 l 972 1275 z "},"ƒ":{"ha":428,"x_min":-62,"x_max":403,"o":"m 403 1043 l 403 713 q 339 929 370 860 q 275 999 309 999 q 238 964 248 999 q 228 789 228 928 q 231 658 228 777 q 233 432 233 538 l 298 432 l 353 559 l 353 273 l 298 406 l 233 406 q 165 -48 226 102 q -14 -203 104 -199 l -62 -288 l -62 -85 l -12 -170 q 116 -24 72 -169 q 162 406 159 120 l 93 406 l 41 273 l 41 559 l 93 432 l 163 432 q 161 611 163 505 q 160 750 160 718 q 182 989 160 936 q 262 1043 204 1043 q 315 1018 290 1043 q 361 945 340 993 l 403 1043 z "},"≈":{"ha":774,"x_min":52,"x_max":722,"o":"m 703 486 l 722 476 q 624 375 681 412 q 510 339 568 339 q 374 374 470 339 q 228 410 278 410 q 153 388 188 410 q 71 307 119 366 l 52 318 q 157 425 107 393 q 268 457 207 457 q 406 422 315 457 q 538 387 497 387 q 626 413 583 387 q 703 486 669 438 m 703 718 l 722 708 q 624 607 681 644 q 510 571 568 571 q 374 606 470 571 q 228 642 278 642 q 153 620 188 642 q 71 539 119 597 l 52 550 q 157 656 107 624 q 262 689 207 689 q 406 655 314 689 q 538 621 498 621 q 626 645 585 621 q 703 718 668 669 z "},"∆":{"ha":1032,"x_min":26,"x_max":1006,"o":"m 503 951 l 160 192 q 138 138 144 157 q 132 103 132 118 q 150 67 132 79 q 204 56 167 56 l 900 56 l 503 951 m 528 1060 l 1006 0 l 26 0 l 504 1060 l 528 1060 z "},"«":{"ha":427,"x_min":46,"x_max":380,"o":"m 46 334 l 249 564 l 249 485 l 75 334 l 249 178 l 249 98 l 46 334 m 178 334 l 380 564 l 380 485 l 207 334 l 380 178 l 380 98 l 178 334 z "},"»":{"ha":427,"x_min":46,"x_max":380,"o":"m 380 329 l 178 98 l 178 176 l 351 329 l 178 484 l 178 564 l 380 329 m 249 329 l 46 98 l 46 176 l 220 329 l 46 484 l 46 564 l 249 329 z "},"…":{"ha":663,"x_min":32,"x_max":631,"o":"m 551 86 q 608 72 585 86 q 631 36 631 57 q 608 2 631 16 q 551 -12 585 -12 q 496 2 518 -12 q 473 36 473 16 q 496 72 473 57 q 551 86 518 86 m 330 86 q 387 72 364 86 q 410 36 410 57 q 387 2 410 16 q 330 -12 365 -12 q 275 2 297 -12 q 253 36 253 16 q 275 72 253 57 q 330 86 297 86 m 110 86 q 166 72 144 86 q 189 36 189 57 q 166 2 189 16 q 110 -12 143 -12 q 54 2 76 -12 q 32 36 32 16 q 54 72 32 57 q 110 86 76 86 z "}," ":{"ha":519,"x_min":0,"x_max":0,"o":""},"À":{"ha":549,"x_min":0,"x_max":547,"o":"m 340 454 l 250 808 l 212 454 l 340 454 m 547 0 l 346 0 l 437 69 l 347 427 l 210 427 l 164 0 l 0 0 l 81 56 l 275 1047 l 464 68 l 547 0 m 314 1108 l 132 1243 l 250 1243 l 314 1108 z "},"Ã":{"ha":549,"x_min":0,"x_max":547,"o":"m 340 454 l 250 808 l 212 454 l 340 454 m 547 0 l 346 0 l 437 69 l 347 427 l 210 427 l 164 0 l 0 0 l 81 56 l 275 1047 l 464 68 l 547 0 m 428 1259 q 389 1168 416 1197 q 318 1140 363 1140 q 265 1155 300 1140 q 212 1169 230 1169 q 163 1156 183 1169 q 123 1108 144 1143 q 161 1204 134 1170 q 228 1238 189 1238 q 288 1222 248 1238 q 346 1207 327 1207 q 395 1219 376 1207 q 428 1259 414 1232 z "},"Õ":{"ha":490,"x_min":40,"x_max":450,"o":"m 126 517 q 153 128 126 233 q 245 24 180 24 q 338 127 311 24 q 364 517 364 230 q 338 906 364 804 q 245 1008 311 1008 q 153 905 180 1008 q 126 517 126 801 m 40 517 q 97 901 40 758 q 245 1043 153 1043 q 394 901 338 1043 q 450 517 450 758 q 394 133 450 275 q 245 -9 338 -9 q 97 133 153 -9 q 40 517 40 275 m 398 1259 q 359 1168 386 1197 q 288 1140 333 1140 q 235 1155 270 1140 q 182 1169 200 1169 q 134 1156 153 1169 q 93 1108 114 1143 q 132 1204 104 1170 q 198 1238 159 1238 q 258 1222 218 1238 q 316 1207 297 1207 q 365 1219 346 1207 q 398 1259 385 1232 z "},"Œ":{"ha":728,"x_min":41,"x_max":694,"o":"m 354 979 q 304 1002 331 994 q 250 1010 277 1010 q 153 912 180 1010 q 126 517 126 814 q 153 128 126 233 q 243 24 179 24 q 303 34 278 24 q 354 66 329 43 l 354 979 m 694 1032 l 615 828 l 615 1006 l 441 1006 l 410 532 l 517 532 l 585 671 l 585 357 l 514 501 l 407 501 l 376 26 l 611 26 l 684 279 l 684 0 l 321 0 q 287 -7 304 -5 q 252 -9 270 -9 q 97 128 152 -9 q 41 517 41 266 q 96 902 41 760 q 243 1043 151 1043 q 311 1034 266 1043 q 318 1032 316 1032 l 694 1032 z "},"œ":{"ha":652,"x_min":36,"x_max":629,"o":"m 201 717 q 130 633 154 717 q 106 387 106 550 q 130 115 106 207 q 203 24 155 24 q 276 114 252 24 q 300 386 300 204 q 274 631 300 545 q 201 717 249 717 m 554 410 l 554 456 q 529 645 554 575 q 464 714 505 714 q 390 634 416 714 q 364 410 364 555 l 554 410 m 629 382 l 363 382 l 363 367 q 390 104 363 185 q 476 24 416 24 q 546 85 515 24 q 608 288 577 146 l 608 3 l 582 104 q 532 16 559 45 q 472 -12 505 -12 q 390 23 427 -12 q 329 127 354 59 q 275 24 307 60 q 204 -12 243 -12 q 82 95 128 -12 q 36 382 36 201 q 85 645 36 541 q 204 749 134 749 q 278 713 245 749 q 335 610 311 678 q 395 714 361 679 q 467 749 428 749 q 579 653 530 749 q 629 427 629 558 l 629 382 z "},"–":{"ha":387,"x_min":57,"x_max":330,"o":"m 330 452 l 319 376 l 82 392 l 57 429 l 330 452 z "},"—":{"ha":610,"x_min":57,"x_max":551,"o":"m 551 454 l 542 372 l 82 393 l 57 429 l 551 454 z "},"“":{"ha":424,"x_min":29,"x_max":395,"o":"m 318 1055 l 298 903 q 305 904 300 903 q 319 904 310 904 q 373 890 352 904 q 395 857 395 877 q 371 824 395 838 q 313 810 347 810 q 254 824 276 810 q 232 860 232 838 q 233 867 232 863 q 237 880 234 871 l 318 1055 m 115 1055 l 95 903 q 102 904 98 903 q 117 904 107 904 q 171 890 149 904 q 192 857 192 877 q 168 824 192 838 q 110 810 144 810 q 52 824 74 810 q 29 860 29 838 q 31 868 29 863 q 35 880 32 873 l 115 1055 z "},"”":{"ha":424,"x_min":29,"x_max":395,"o":"m 309 796 l 329 950 q 318 949 323 949 q 307 949 313 949 q 253 962 275 949 q 232 996 232 976 q 255 1029 232 1015 q 313 1043 279 1043 q 371 1029 348 1043 q 395 994 395 1015 q 393 984 395 989 q 389 972 392 979 l 309 796 m 106 796 l 126 950 q 116 949 121 949 q 104 949 111 949 q 51 962 72 949 q 29 996 29 976 q 53 1029 29 1015 q 110 1043 76 1043 q 169 1029 145 1043 q 192 994 192 1015 q 191 984 192 989 q 186 972 189 979 l 106 796 z "},"‘":{"ha":221,"x_min":29,"x_max":192,"o":"m 115 1055 l 95 903 q 102 904 98 903 q 117 904 107 904 q 171 890 149 904 q 192 857 192 877 q 168 824 192 838 q 110 810 144 810 q 52 824 74 810 q 29 860 29 838 q 31 868 29 863 q 35 880 32 873 l 115 1055 z "},"’":{"ha":231,"x_min":33,"x_max":196,"o":"m 110 796 l 131 950 q 119 949 125 949 q 109 949 114 949 q 55 962 76 949 q 33 996 33 976 q 57 1029 33 1015 q 115 1043 80 1043 q 173 1029 151 1043 q 196 994 196 1015 q 195 984 196 989 q 191 972 193 979 l 110 796 z "},"÷":{"ha":1157,"x_min":172,"x_max":985,"o":"m 579 248 q 626 228 607 248 q 646 179 646 208 q 626 132 646 152 q 579 113 607 113 q 532 132 551 113 q 513 179 513 151 q 532 227 513 207 q 579 248 552 248 m 172 441 l 985 441 l 985 386 l 172 386 l 172 441 m 579 715 q 626 696 607 715 q 646 648 646 677 q 626 601 646 621 q 579 581 607 581 q 532 601 551 581 q 513 648 513 621 q 532 696 513 676 q 579 715 551 715 z "},"◊":{"ha":1389,"x_min":278,"x_max":1111,"o":"m 387 918 q 447 731 428 828 q 465 501 465 635 q 447 272 465 368 q 387 85 428 175 q 540 143 465 124 q 694 161 615 161 q 849 143 774 161 q 1002 85 924 124 q 942 272 961 176 q 924 501 924 369 q 942 731 924 634 q 1002 918 961 828 q 850 860 926 879 q 694 842 775 842 q 539 860 614 842 q 387 918 465 879 m 278 974 l 325 1026 q 507 944 418 970 q 694 918 597 918 q 882 944 792 918 q 1064 1026 971 970 l 1111 974 q 1027 761 1053 870 q 1002 501 1002 651 q 1027 242 1002 351 q 1111 29 1053 133 l 1064 -25 q 880 58 970 32 q 694 85 791 85 q 509 58 598 85 q 325 -25 419 32 l 278 29 q 361 242 336 133 q 387 501 387 351 q 361 760 387 650 q 278 974 336 869 z "},"ÿ":{"ha":492,"x_min":46,"x_max":486,"o":"m 486 737 l 399 682 l 399 61 q 356 -200 399 -112 q 231 -288 314 -288 q 159 -267 193 -288 q 104 -210 125 -246 l 65 -290 l 65 -45 q 141 -216 105 -170 q 231 -262 178 -262 q 316 -194 291 -262 q 340 52 340 -126 l 340 127 q 287 24 320 61 q 215 -12 254 -12 q 95 85 144 -12 q 46 332 46 183 q 75 524 46 438 q 164 685 103 610 l 47 737 l 236 737 q 147 562 175 658 q 119 326 119 466 q 143 93 119 165 q 221 21 168 21 q 307 106 267 21 q 350 310 347 192 l 358 737 l 486 737 m 306 893 q 328 923 306 911 q 385 936 351 936 q 443 923 420 936 q 466 893 466 911 q 443 863 466 876 q 385 851 420 851 q 328 863 351 851 q 306 893 306 876 m 87 893 q 110 923 87 911 q 167 936 133 936 q 224 923 201 936 q 248 893 248 911 q 225 863 248 876 q 167 851 202 851 q 110 863 132 851 q 87 893 87 876 z "},"Ÿ":{"ha":472,"x_min":-8,"x_max":505,"o":"m 505 1006 l 431 947 l 245 437 l 290 50 l 370 0 l 115 0 l 199 50 l 220 437 l 78 966 l -8 1032 l 199 1032 l 107 961 l 267 561 l 395 936 l 304 1006 l 505 1006 m 286 1182 q 309 1212 286 1200 q 366 1225 331 1225 q 423 1212 400 1225 q 446 1182 446 1200 q 424 1152 446 1164 q 366 1140 401 1140 q 309 1152 331 1140 q 286 1182 286 1164 m 68 1182 q 91 1212 68 1200 q 147 1225 113 1225 q 205 1212 182 1225 q 228 1182 228 1200 q 205 1152 228 1164 q 147 1140 182 1140 q 90 1152 113 1140 q 68 1182 68 1164 z "},"∕":{"ha":139,"x_min":-189,"x_max":254,"o":"m 254 1032 l -69 0 l -189 0 l -78 54 l 160 979 l 78 1032 l 254 1032 z "},"€":{"ha":490,"x_min":24,"x_max":460,"o":"m 460 411 q 419 161 456 277 q 264 -9 365 -9 q 131 137 186 -9 q 77 422 86 255 l 75 422 l 24 363 l 24 508 l 75 448 l 77 448 q 75 513 75 486 q 79 618 75 570 l 75 618 l 24 559 l 24 705 l 75 645 l 81 645 q 136 892 94 785 q 279 1043 197 1043 q 401 925 362 1043 l 444 1023 l 444 693 q 278 1017 380 1017 q 189 882 217 1017 q 165 645 172 799 l 256 645 l 307 705 l 307 564 l 256 618 l 164 618 q 161 448 161 543 l 256 448 l 307 508 l 307 368 l 256 422 l 161 422 q 267 20 163 20 q 366 146 335 20 q 387 325 387 229 l 387 411 l 460 411 z "},"‹":{"ha":294,"x_min":46,"x_max":249,"o":"m 46 334 l 249 564 l 249 485 l 75 334 l 249 178 l 249 98 l 46 334 z "},"›":{"ha":294,"x_min":46,"x_max":249,"o":"m 249 329 l 46 98 l 46 176 l 220 329 l 46 484 l 46 564 l 249 329 z "},"":{"ha":733,"x_min":39,"x_max":729,"o":"m 484 857 q 510 887 484 875 q 578 900 537 900 q 646 888 619 900 q 672 857 672 876 q 646 827 672 839 q 578 815 620 815 q 510 827 536 815 q 484 857 484 839 m 729 737 l 614 684 l 595 54 l 693 0 l 463 0 l 566 54 l 547 517 l 221 517 l 221 468 q 225 254 221 358 q 237 54 229 151 l 346 0 l 110 0 l 201 53 q 170 301 182 183 q 154 517 158 418 l 89 517 l 39 387 l 39 668 l 92 543 l 153 543 q 152 588 152 566 q 151 637 151 610 q 185 953 151 863 q 300 1043 220 1043 q 364 1014 336 1043 q 414 924 392 985 l 436 1017 l 436 755 q 381 942 414 877 q 310 1007 349 1007 q 243 905 264 1007 q 221 543 223 804 l 546 543 l 541 684 l 432 737 l 729 737 z "},"":{"ha":648,"x_min":65,"x_max":616,"o":"m 66 387 l 65 668 l 119 543 l 180 543 q 179 572 180 557 q 179 621 179 588 q 185 826 179 762 q 205 926 191 890 q 283 1014 229 986 q 429 1042 336 1042 q 504 1039 468 1042 q 574 1031 540 1037 l 530 54 l 616 0 l 414 0 l 498 54 l 498 1015 q 480 1016 491 1016 q 446 1017 469 1017 q 323 985 367 1017 q 267 889 279 954 q 255 768 260 850 q 248 543 251 686 l 326 543 l 380 668 l 380 392 l 325 517 l 249 517 l 249 468 q 253 256 249 360 q 265 54 257 153 l 374 0 l 138 0 l 231 53 q 197 304 210 189 q 182 517 185 420 l 117 517 l 66 387 z "},"‡":{"ha":472,"x_min":29,"x_max":443,"o":"m 443 150 l 390 278 l 261 278 l 252 -100 l 364 -151 l 113 -151 l 221 -100 l 212 278 l 78 278 l 29 144 l 29 431 l 78 304 l 212 304 l 204 619 l 78 619 l 29 486 l 29 772 l 78 646 l 204 646 l 197 982 l 113 1032 l 367 1032 l 279 982 l 271 646 l 390 646 l 443 772 l 443 493 l 390 619 l 269 619 l 262 304 l 390 304 l 443 431 l 443 150 z "},"·":{"ha":221,"x_min":32,"x_max":189,"o":"m 110 436 q 166 421 144 436 q 189 386 189 407 q 166 351 189 366 q 110 336 144 336 q 54 351 75 336 q 32 386 32 365 q 54 421 32 407 q 110 436 76 436 z "},"‚":{"ha":221,"x_min":29,"x_max":192,"o":"m 106 -163 l 126 -9 q 113 -11 117 -10 q 104 -11 109 -11 q 51 3 73 -11 q 29 36 29 17 q 53 70 29 56 q 110 85 76 85 q 169 71 145 85 q 192 36 192 57 q 190 24 192 30 q 186 12 189 18 l 106 -163 z "},"„":{"ha":424,"x_min":29,"x_max":395,"o":"m 309 -163 l 329 -9 q 316 -11 320 -10 q 307 -11 312 -11 q 254 3 275 -11 q 232 36 232 17 q 255 70 232 56 q 313 85 279 85 q 372 70 349 85 q 395 33 395 56 q 393 25 395 30 q 389 12 391 20 l 309 -163 m 106 -163 l 126 -9 q 113 -11 117 -10 q 104 -11 109 -11 q 51 3 73 -11 q 29 36 29 17 q 53 70 29 56 q 110 85 76 85 q 169 71 145 85 q 192 36 192 57 q 190 24 192 30 q 186 12 189 18 l 106 -163 z "},"‰":{"ha":1182,"x_min":37,"x_max":1145,"o":"m 997 541 q 931 486 951 541 q 911 300 911 432 q 931 86 911 148 q 999 24 951 24 q 1059 82 1041 24 q 1076 298 1076 141 q 1058 487 1076 433 q 997 541 1040 541 m 997 572 q 1105 500 1065 572 q 1145 304 1145 428 q 1105 73 1145 157 q 997 -12 1065 -12 q 884 68 925 -12 q 843 293 843 149 q 885 496 843 420 q 997 572 928 572 m 624 541 q 557 486 577 541 q 538 300 538 432 q 558 86 538 148 q 625 24 578 24 q 685 82 668 24 q 703 298 703 141 q 684 486 703 431 q 624 541 666 541 m 624 572 q 731 500 690 572 q 771 304 771 428 q 731 73 771 158 q 624 -12 690 -12 q 510 68 551 -12 q 469 293 469 149 q 512 496 469 420 q 624 572 554 572 m 589 1032 l 265 0 l 146 0 l 257 54 l 494 979 l 412 1032 l 589 1032 m 192 1010 q 124 955 144 1010 q 104 770 104 900 q 125 557 104 619 q 193 494 145 494 q 252 552 235 494 q 269 768 269 609 q 252 957 269 903 q 192 1010 234 1010 m 192 1043 q 299 971 259 1043 q 339 774 339 899 q 299 543 339 628 q 192 458 259 458 q 78 539 119 458 q 37 764 37 621 q 80 967 37 890 q 192 1043 123 1043 z "},"Â":{"ha":549,"x_min":0,"x_max":547,"o":"m 340 454 l 250 808 l 212 454 l 340 454 m 547 0 l 346 0 l 437 69 l 347 427 l 210 427 l 164 0 l 0 0 l 81 56 l 275 1047 l 464 68 l 547 0 m 393 1112 l 277 1177 l 156 1112 l 243 1251 l 313 1251 l 393 1112 z "},"Ê":{"ha":461,"x_min":3,"x_max":428,"o":"m 3 0 l 87 54 l 87 982 l 16 1032 l 428 1032 l 349 828 l 349 1006 l 175 1006 l 143 532 l 250 532 l 318 671 l 318 357 l 248 501 l 142 501 l 110 26 l 345 26 l 416 279 l 416 0 l 3 0 m 349 1112 l 232 1177 l 111 1112 l 199 1251 l 268 1251 l 349 1112 z "},"Á":{"ha":549,"x_min":0,"x_max":547,"o":"m 340 454 l 250 808 l 212 454 l 340 454 m 547 0 l 346 0 l 437 69 l 347 427 l 210 427 l 164 0 l 0 0 l 81 56 l 275 1047 l 464 68 l 547 0 m 429 1243 l 248 1108 l 310 1243 l 429 1243 z "},"Ë":{"ha":461,"x_min":3,"x_max":428,"o":"m 3 0 l 87 54 l 87 982 l 16 1032 l 428 1032 l 349 828 l 349 1006 l 175 1006 l 143 532 l 250 532 l 318 671 l 318 357 l 248 501 l 142 501 l 110 26 l 345 26 l 416 279 l 416 0 l 3 0 m 260 1182 q 282 1212 260 1200 q 339 1225 304 1225 q 397 1212 374 1225 q 420 1182 420 1200 q 397 1152 420 1164 q 339 1140 374 1140 q 282 1152 304 1140 q 260 1182 260 1164 m 41 1182 q 64 1212 41 1200 q 121 1225 87 1225 q 178 1212 155 1225 q 201 1182 201 1200 q 179 1152 201 1164 q 121 1140 156 1140 q 64 1152 86 1140 q 41 1182 41 1164 z "},"È":{"ha":461,"x_min":3,"x_max":428,"o":"m 3 0 l 87 54 l 87 982 l 16 1032 l 428 1032 l 349 828 l 349 1006 l 175 1006 l 143 532 l 250 532 l 318 671 l 318 357 l 248 501 l 142 501 l 110 26 l 345 26 l 416 279 l 416 0 l 3 0 m 269 1108 l 87 1243 l 205 1243 l 269 1108 z "},"Í":{"ha":256,"x_min":-29,"x_max":380,"o":"m 380 1075 l 125 946 l 243 1075 l 380 1075 m -16 0 l 102 49 l 79 857 l -29 907 l 283 907 l 171 857 l 129 49 l 245 0 l -16 0 z "},"Î":{"ha":256,"x_min":-33,"x_max":289,"o":"m 289 942 l 131 1008 l -33 942 l 77 1067 l 184 1067 l 289 942 m -16 0 l 102 49 l 79 857 l -29 907 l 285 907 l 171 857 l 129 49 l 245 0 l -16 0 z "},"Ï":{"ha":256,"x_min":-79,"x_max":335,"o":"m 168 987 q 192 1019 168 1006 q 252 1032 215 1032 q 311 1019 288 1032 q 335 987 335 1006 q 312 957 335 969 q 252 945 288 945 q 191 957 214 945 q 168 987 168 969 m -79 987 q -56 1019 -79 1006 q 4 1032 -32 1032 q 64 1019 41 1032 q 87 987 87 1006 q 64 957 87 969 q 4 945 41 945 q -56 957 -33 945 q -79 987 -79 969 m -16 0 l 102 49 l 79 857 l -29 907 l 283 907 l 171 857 l 129 49 l 245 0 l -16 0 z "},"Ì":{"ha":256,"x_min":-100,"x_max":283,"o":"m -100 1075 l 37 1075 l 155 946 l -100 1075 m -16 0 l 102 49 l 79 857 l -29 907 l 283 907 l 171 857 l 129 49 l 245 0 l -16 0 z "},"Ó":{"ha":490,"x_min":40,"x_max":450,"o":"m 126 517 q 153 128 126 233 q 245 24 180 24 q 338 127 311 24 q 364 517 364 230 q 338 906 364 804 q 245 1008 311 1008 q 153 905 180 1008 q 126 517 126 801 m 40 517 q 97 901 40 758 q 245 1043 153 1043 q 394 901 338 1043 q 450 517 450 758 q 394 133 450 275 q 245 -9 338 -9 q 97 133 153 -9 q 40 517 40 275 m 399 1243 l 218 1108 l 280 1243 l 399 1243 z "},"Ô":{"ha":490,"x_min":40,"x_max":450,"o":"m 126 517 q 153 128 126 233 q 245 24 180 24 q 338 127 311 24 q 364 517 364 230 q 338 906 364 804 q 245 1008 311 1008 q 153 905 180 1008 q 126 517 126 801 m 40 517 q 97 901 40 758 q 245 1043 153 1043 q 394 901 338 1043 q 450 517 450 758 q 394 133 450 275 q 245 -9 338 -9 q 97 133 153 -9 q 40 517 40 275 m 363 1112 l 247 1177 l 126 1112 l 214 1251 l 283 1251 l 363 1112 z "},"Ò":{"ha":490,"x_min":40,"x_max":450,"o":"m 126 517 q 153 128 126 233 q 245 24 180 24 q 338 127 311 24 q 364 517 364 230 q 338 906 364 804 q 245 1008 311 1008 q 153 905 180 1008 q 126 517 126 801 m 40 517 q 97 901 40 758 q 245 1043 153 1043 q 394 901 338 1043 q 450 517 450 758 q 394 133 450 275 q 245 -9 338 -9 q 97 133 153 -9 q 40 517 40 275 m 284 1108 l 102 1243 l 220 1243 l 284 1108 z "},"Ú":{"ha":494,"x_min":41,"x_max":456,"o":"m 252 956 l 456 956 l 363 889 q 428 716 406 805 q 450 534 450 627 q 419 274 450 398 q 334 64 388 150 q 283 10 311 29 q 227 -9 255 -9 q 96 109 151 -9 q 41 404 41 227 q 71 676 41 534 q 157 968 100 819 l 71 1032 l 275 1032 l 184 966 q 138 744 153 867 q 123 440 123 621 q 148 116 123 209 q 228 24 172 24 q 335 190 290 24 q 379 610 379 355 q 368 781 379 714 q 332 892 357 847 l 252 956 m 414 1243 l 232 1108 l 294 1243 l 414 1243 z "},"Û":{"ha":494,"x_min":41,"x_max":456,"o":"m 252 956 l 456 956 l 363 889 q 428 716 406 805 q 450 534 450 627 q 419 274 450 398 q 334 64 388 150 q 283 10 311 29 q 227 -9 255 -9 q 96 109 151 -9 q 41 404 41 227 q 71 676 41 534 q 157 968 100 819 l 71 1032 l 275 1032 l 184 966 q 138 744 153 867 q 123 440 123 621 q 148 116 123 209 q 228 24 172 24 q 335 190 290 24 q 379 610 379 355 q 368 781 379 714 q 332 892 357 847 l 252 956 m 378 1112 l 261 1177 l 140 1112 l 228 1251 l 297 1251 l 378 1112 z "},"Ù":{"ha":494,"x_min":41,"x_max":456,"o":"m 252 956 l 456 956 l 363 889 q 428 716 406 805 q 450 534 450 627 q 419 274 450 398 q 334 64 388 150 q 283 10 311 29 q 227 -9 255 -9 q 96 109 151 -9 q 41 404 41 227 q 71 676 41 534 q 157 968 100 819 l 71 1032 l 275 1032 l 184 966 q 138 744 153 867 q 123 440 123 621 q 148 116 123 209 q 228 24 172 24 q 335 190 290 24 q 379 610 379 355 q 368 781 379 714 q 332 892 357 847 l 252 956 m 298 1108 l 117 1243 l 235 1243 l 298 1108 z "},"ı":{"ha":310,"x_min":4,"x_max":306,"o":"m 39 0 l 142 54 l 117 684 l 4 737 l 306 737 l 191 684 l 171 54 l 269 0 l 39 0 z "},"ˆ":{"ha":694,"x_min":228,"x_max":465,"o":"m 465 823 l 349 888 l 228 823 l 315 962 l 385 962 l 465 823 z "},"˜":{"ha":694,"x_min":195,"x_max":500,"o":"m 500 970 q 461 880 488 908 q 390 851 435 851 q 337 866 372 851 q 283 880 302 880 q 235 867 255 880 q 195 819 216 854 q 233 915 205 881 q 300 949 261 949 q 359 933 320 949 q 418 918 399 918 q 467 930 448 918 q 500 970 486 943 z "},"ˉ":{"ha":694,"x_min":211,"x_max":484,"o":"m 484 929 l 473 859 l 236 872 l 211 909 l 484 929 z "},"˘":{"ha":694,"x_min":197,"x_max":496,"o":"m 496 985 l 496 965 q 454 866 496 905 q 349 827 412 827 q 240 863 282 827 q 197 957 197 900 q 199 975 197 962 q 200 985 199 981 q 261 912 224 936 q 349 888 298 888 q 436 912 399 888 q 496 985 473 937 z "},"˙":{"ha":694,"x_min":253,"x_max":441,"o":"m 253 893 q 280 923 253 911 q 347 936 307 936 q 414 923 387 936 q 441 893 441 910 q 415 863 441 876 q 347 851 389 851 q 279 863 305 851 q 253 893 253 875 z "},"˚":{"ha":694,"x_min":170,"x_max":524,"o":"m 244 888 q 273 854 244 867 q 347 842 301 842 q 422 854 393 842 q 450 888 450 867 q 421 921 450 908 q 347 935 393 935 q 273 921 302 935 q 244 888 244 908 m 170 889 q 220 945 170 922 q 347 968 271 968 q 474 945 424 968 q 524 889 524 922 q 474 833 524 856 q 347 811 425 811 q 220 834 271 811 q 170 889 170 857 z "},"¸":{"ha":694,"x_min":239,"x_max":467,"o":"m 317 0 l 351 0 l 349 -58 q 439 -118 412 -87 q 467 -195 467 -149 q 435 -266 467 -237 q 355 -296 403 -296 q 270 -256 300 -296 q 239 -143 240 -217 l 292 -143 q 306 -239 292 -210 q 350 -268 319 -268 q 393 -243 376 -268 q 410 -179 410 -218 q 389 -122 410 -146 q 314 -66 369 -98 l 317 0 z "},"˝":{"ha":694,"x_min":167,"x_max":526,"o":"m 526 954 l 345 819 l 407 954 l 526 954 m 350 954 l 167 819 l 231 954 l 350 954 z "},"˛":{"ha":694,"x_min":212,"x_max":389,"o":"m 319 0 l 346 0 q 284 -34 305 -10 q 264 -96 264 -58 q 295 -166 264 -140 q 389 -201 327 -193 l 379 -269 q 257 -210 301 -250 q 212 -117 212 -169 q 242 -44 212 -77 q 319 0 271 -12 z "},"ˇ":{"ha":694,"x_min":228,"x_max":465,"o":"m 465 977 l 378 839 l 310 839 l 228 977 l 345 914 l 465 977 z "},"Ł":{"ha":416,"x_min":1,"x_max":392,"o":"m 87 496 l 9 429 l 1 458 l 87 530 l 87 982 l 16 1032 l 175 1032 l 146 579 l 241 660 l 250 632 l 143 542 l 110 28 l 315 28 l 392 386 l 392 0 l 3 0 l 87 54 l 87 496 z "},"ł":{"ha":252,"x_min":4,"x_max":258,"o":"m 102 500 l 18 429 l 8 458 l 102 536 l 102 972 l 4 1032 l 176 1032 l 157 582 l 250 660 l 258 632 l 155 546 l 134 54 l 220 0 l 17 0 l 102 54 l 102 500 z "},"Š":{"ha":449,"x_min":32,"x_max":415,"o":"m 392 1050 l 392 703 q 314 952 349 889 q 231 1015 280 1015 q 172 970 192 1015 q 151 839 151 926 q 173 691 151 747 q 261 571 195 635 q 387 411 358 475 q 415 264 415 348 q 360 67 415 144 q 220 -9 304 -9 q 140 26 174 -9 q 79 138 106 61 l 32 40 l 32 433 q 124 105 85 189 q 218 21 163 21 q 299 79 273 21 q 325 260 325 136 q 303 439 325 380 q 227 553 281 499 q 199 577 218 561 q 86 711 117 650 q 70 766 76 731 q 64 839 64 800 q 112 985 64 928 q 232 1043 159 1043 q 298 1017 270 1043 q 349 936 327 991 l 392 1050 m 343 1265 l 256 1128 l 188 1128 l 106 1265 l 222 1203 l 343 1265 z "},"š":{"ha":396,"x_min":35,"x_max":370,"o":"m 336 745 l 336 471 q 283 658 315 597 q 208 718 252 718 q 145 689 168 718 q 123 606 123 660 q 273 377 123 489 q 282 371 279 373 q 348 291 327 337 q 370 179 370 244 q 326 40 370 92 q 211 -12 283 -12 q 129 22 165 -12 q 61 129 92 56 l 35 0 l 35 330 q 108 101 63 182 q 207 21 153 21 q 272 56 253 21 q 292 176 292 92 q 272 306 292 260 q 205 385 252 352 q 201 388 204 386 q 56 604 56 491 q 95 708 56 667 q 196 749 135 749 q 262 727 237 749 q 313 652 288 706 l 336 745 m 317 977 l 229 839 l 161 839 l 79 977 l 196 914 l 317 977 z "},"Ž":{"ha":475,"x_min":29,"x_max":449,"o":"m 449 1032 l 68 26 l 340 26 l 415 385 l 415 0 l 29 0 l 343 1006 l 135 1006 l 58 646 l 58 1032 l 449 1032 m 374 1265 l 286 1128 l 218 1128 l 136 1265 l 253 1203 l 374 1265 z "},"ž":{"ha":435,"x_min":36,"x_max":395,"o":"m 395 737 l 77 26 l 328 26 l 376 322 l 376 0 l 36 0 l 293 710 l 114 710 l 65 410 l 65 737 l 395 737 m 351 977 l 264 839 l 196 839 l 114 977 l 231 914 l 351 977 z "},"¦":{"ha":774,"x_min":364,"x_max":410,"o":"m 364 237 l 410 237 l 410 -258 l 364 -258 l 364 237 m 364 1032 l 410 1032 l 410 528 l 364 528 l 364 1032 z "},"Ð":{"ha":463,"x_min":3,"x_max":421,"o":"m 110 26 q 292 176 235 29 q 349 652 349 323 q 310 929 349 855 q 175 1005 271 1004 l 143 532 l 260 532 l 254 501 l 142 501 l 110 26 m 3 0 l 87 54 l 87 501 l 16 501 l 4 532 l 87 532 l 87 982 l 16 1032 l 160 1032 q 354 916 288 1032 q 421 579 421 800 q 382 299 421 429 q 277 85 344 168 q 200 22 242 43 q 113 0 159 0 l 3 0 z "},"ð":{"ha":406,"x_min":36,"x_max":370,"o":"m 201 711 q 130 629 154 711 q 106 387 106 547 q 130 118 106 209 q 201 26 154 26 q 275 119 250 26 q 300 387 300 212 q 275 629 300 547 q 201 711 250 711 m 250 943 l 354 999 l 355 968 l 261 918 q 344 693 319 812 q 370 382 370 574 q 324 94 370 201 q 203 -12 278 -12 q 83 93 130 -12 q 36 370 36 199 q 84 642 36 536 q 203 749 132 749 q 232 743 217 749 q 262 725 248 736 q 247 813 256 770 q 224 899 237 857 l 126 846 l 123 876 l 215 925 q 204 958 209 943 q 195 982 199 972 l 78 1032 l 203 1032 q 221 998 211 1017 q 250 943 232 978 z "},"Ý":{"ha":472,"x_min":-8,"x_max":505,"o":"m 505 1006 l 431 947 l 245 437 l 290 50 l 370 0 l 115 0 l 199 50 l 220 437 l 78 966 l -8 1032 l 199 1032 l 107 961 l 267 561 l 395 936 l 304 1006 l 505 1006 m 411 1243 l 229 1108 l 292 1243 l 411 1243 z "},"ý":{"ha":492,"x_min":46,"x_max":486,"o":"m 486 737 l 399 682 l 399 61 q 356 -200 399 -112 q 231 -288 314 -288 q 159 -267 193 -288 q 104 -210 125 -246 l 65 -290 l 65 -45 q 141 -216 105 -170 q 231 -262 178 -262 q 316 -194 291 -262 q 340 52 340 -126 l 340 127 q 287 24 320 61 q 215 -12 254 -12 q 95 85 144 -12 q 46 332 46 183 q 75 524 46 438 q 164 685 103 610 l 47 737 l 236 737 q 147 562 175 658 q 119 326 119 466 q 143 93 119 165 q 221 21 168 21 q 307 106 267 21 q 350 310 347 192 l 358 737 l 486 737 m 431 954 l 249 819 l 311 954 l 431 954 z "},"Þ":{"ha":429,"x_min":3,"x_max":407,"o":"m 129 286 q 138 286 132 286 q 146 285 143 285 q 287 370 235 285 q 339 603 339 456 q 298 794 339 732 q 172 856 258 856 l 164 856 l 129 286 m 3 0 l 87 54 l 87 982 l 16 1032 l 175 1032 l 165 878 l 175 878 q 342 794 277 878 q 407 578 407 711 q 330 352 407 442 q 138 261 253 261 l 127 261 l 110 0 l 3 0 z "},"þ":{"ha":490,"x_min":4,"x_max":453,"o":"m 273 714 q 185 608 224 714 q 147 350 147 503 q 184 118 147 213 q 267 24 220 24 q 348 113 321 24 q 374 392 374 202 q 350 640 374 565 q 273 714 327 714 m 9 -294 l 96 -241 l 96 975 l 4 1032 l 131 1032 l 147 528 q 200 692 167 636 q 278 749 233 749 q 405 647 357 749 q 453 372 453 546 q 401 95 453 202 q 273 -12 350 -12 q 208 26 238 -12 q 157 136 178 64 l 176 -294 l 9 -294 z "},"−":{"ha":1157,"x_min":172,"x_max":985,"o":"m 172 441 l 985 441 l 985 386 l 172 386 l 172 441 z "},"×":{"ha":1157,"x_min":210,"x_max":949,"o":"m 249 783 l 579 453 l 909 783 l 949 745 l 618 414 l 949 83 l 909 45 l 579 375 l 249 45 l 210 83 l 541 414 l 210 745 l 249 783 z "},"¹":{"ha":297,"x_min":26,"x_max":253,"o":"m 253 416 l 54 416 l 143 452 l 125 932 l 26 885 l 197 1050 l 168 452 l 253 416 z "},"²":{"ha":297,"x_min":12,"x_max":273,"o":"m 273 416 l 12 416 l 13 417 q 200 886 200 758 q 187 980 200 947 q 150 1013 174 1013 q 94 955 121 1013 q 32 749 68 897 l 32 1026 l 68 960 q 106 1021 86 1001 q 150 1042 127 1042 q 230 1000 198 1042 q 261 892 261 958 q 91 505 261 780 q 52 441 65 464 l 224 441 l 273 619 l 273 416 z "},"³":{"ha":296,"x_min":22,"x_max":282,"o":"m 22 431 l 22 711 q 83 497 55 556 q 149 437 111 437 q 201 487 179 437 q 224 608 224 536 q 205 705 224 672 q 151 737 187 737 l 119 737 l 85 668 l 85 827 l 119 762 l 144 762 q 193 797 177 762 q 210 899 210 831 q 194 985 210 954 q 151 1017 178 1017 q 98 984 119 1017 q 39 811 77 951 l 39 1063 l 71 987 q 106 1028 85 1015 q 155 1042 127 1042 q 235 1002 203 1042 q 267 903 267 962 q 247 821 267 859 q 189 753 228 783 q 258 698 235 734 q 282 611 282 662 q 240 470 282 530 q 144 411 199 411 q 95 431 118 411 q 54 490 71 452 l 22 431 z "},"½":{"ha":732,"x_min":8,"x_max":648,"o":"m 648 0 l 387 0 q 538 303 503 210 q 574 469 574 397 q 561 563 574 530 q 525 596 549 596 q 471 543 496 596 q 407 332 446 489 l 407 610 l 441 543 q 479 604 458 583 q 525 625 500 625 q 604 582 574 625 q 635 469 635 539 q 458 76 635 363 q 427 25 437 43 l 599 25 l 648 203 l 648 0 m 503 1032 l 180 0 l 61 0 l 171 54 l 408 979 l 328 1032 l 503 1032 m 235 416 l 36 416 l 125 452 l 107 932 l 8 885 l 179 1050 l 150 452 l 235 416 z "},"¼":{"ha":732,"x_min":8,"x_max":656,"o":"m 656 221 l 623 293 l 595 288 l 595 37 l 650 0 l 525 0 l 547 279 l 396 254 l 446 583 l 389 619 l 510 619 l 432 317 l 550 317 l 575 619 l 654 619 l 595 582 l 595 317 l 623 317 l 656 382 l 656 221 m 497 1032 l 174 0 l 54 0 l 165 54 l 403 979 l 321 1032 l 497 1032 m 236 416 l 37 416 l 126 452 l 109 932 l 8 885 l 180 1050 l 151 452 l 236 416 z "},"¾":{"ha":732,"x_min":40,"x_max":718,"o":"m 718 221 l 685 293 l 659 288 l 659 37 l 713 0 l 587 0 l 610 279 l 458 254 l 509 583 l 452 619 l 572 619 l 494 317 l 612 317 l 637 619 l 717 619 l 657 582 l 659 317 l 685 317 l 718 382 l 718 221 m 562 1032 l 239 0 l 119 0 l 231 54 l 468 979 l 387 1032 l 562 1032 m 40 431 l 40 711 q 101 498 73 558 q 168 437 130 437 q 220 487 198 437 q 243 608 243 536 q 225 705 243 672 q 171 737 207 737 l 139 737 l 104 668 l 104 827 l 139 762 l 164 762 q 213 797 196 762 q 229 899 229 831 q 214 985 229 954 q 171 1017 198 1017 q 117 984 138 1017 q 58 811 96 951 l 58 1063 l 90 987 q 124 1028 104 1015 q 174 1042 145 1042 q 254 1002 221 1042 q 286 903 286 962 q 267 821 286 859 q 208 753 247 783 q 278 698 254 734 q 301 611 301 662 q 259 470 301 530 q 164 411 218 411 q 114 431 137 411 q 74 490 91 452 l 40 431 z "},"₣":{"ha":819,"x_min":3,"x_max":798,"o":"m 3 0 l 87 54 l 87 982 l 16 1032 l 439 1032 l 343 782 l 343 1006 l 175 1006 l 144 532 l 252 532 l 319 671 l 319 357 l 249 501 l 142 501 l 110 0 l 3 0 m 435 0 l 518 54 l 518 686 l 432 737 l 554 737 l 564 549 q 606 701 579 653 q 677 749 633 749 q 731 724 709 749 q 767 647 753 699 l 798 741 l 798 383 q 740 615 772 538 q 668 692 708 692 q 597 604 625 692 q 570 370 570 516 q 576 182 570 275 q 597 0 583 90 l 435 0 z "},"Ğ":{"ha":481,"x_min":40,"x_max":443,"o":"m 224 529 l 443 529 l 443 411 q 381 114 443 238 q 239 -9 319 -9 q 97 135 153 -9 q 40 513 40 279 q 102 894 40 745 q 253 1043 163 1043 q 329 1012 295 1043 q 383 925 363 981 l 425 1023 l 425 693 q 350 939 391 861 q 252 1017 308 1017 q 155 891 184 1017 q 126 460 126 766 q 152 113 126 207 q 241 20 178 20 q 333 104 297 20 q 368 325 368 189 l 368 511 l 298 511 l 224 364 l 224 529 m 415 1274 l 415 1254 q 373 1155 415 1194 q 268 1116 331 1116 q 159 1152 201 1116 q 117 1246 117 1189 q 118 1264 117 1251 q 119 1274 119 1270 q 180 1201 143 1225 q 268 1177 217 1177 q 355 1201 318 1177 q 415 1274 392 1225 z "},"ğ":{"ha":484,"x_min":36,"x_max":479,"o":"m 222 714 q 142 628 168 714 q 117 359 117 541 q 139 98 117 173 q 215 24 162 24 q 306 127 268 24 q 343 387 343 230 q 305 618 343 522 q 222 714 267 714 m 479 737 l 393 685 l 393 61 q 351 -200 393 -112 q 225 -288 309 -288 q 155 -267 188 -288 q 100 -210 123 -247 l 60 -290 l 60 -45 q 136 -217 100 -171 q 227 -262 172 -262 q 310 -195 286 -262 q 334 52 334 -127 l 334 127 q 279 23 309 58 q 211 -12 248 -12 q 84 90 132 -12 q 36 366 36 191 q 87 643 36 536 q 218 749 139 749 q 292 701 259 749 q 346 564 326 652 l 358 737 l 479 737 m 390 985 l 390 965 q 348 866 390 905 q 243 827 306 827 q 134 863 176 827 q 92 957 92 900 q 93 975 92 962 q 94 985 94 981 q 155 912 118 936 q 243 888 192 888 q 330 912 293 888 q 390 985 367 937 z "},"İ":{"ha":256,"x_min":-29,"x_max":283,"o":"m 31 985 q 58 1015 31 1002 q 125 1028 85 1028 q 195 1015 167 1028 q 222 985 222 1002 q 195 956 222 968 q 125 945 168 945 q 57 956 83 945 q 31 985 31 967 m -16 0 l 102 49 l 79 857 l -29 907 l 283 907 l 170 857 l 129 49 l 245 0 l -16 0 m 33 1182 q 60 1212 33 1200 q 127 1225 87 1225 q 195 1212 168 1225 q 222 1182 222 1199 q 195 1152 222 1164 q 127 1140 169 1140 q 59 1152 85 1140 q 33 1182 33 1164 z "},"Ş":{"ha":449,"x_min":32,"x_max":415,"o":"m 392 1050 l 392 703 q 314 952 349 889 q 231 1015 280 1015 q 172 970 192 1015 q 151 839 151 926 q 173 691 151 747 q 261 571 195 635 q 387 411 358 475 q 415 264 415 348 q 360 67 415 144 q 220 -9 304 -9 q 140 26 174 -9 q 79 138 106 61 l 32 40 l 32 433 q 124 105 85 189 q 218 21 163 21 q 299 79 273 21 q 325 260 325 136 q 303 439 325 380 q 227 553 281 499 q 199 577 218 561 q 86 711 117 650 q 70 766 76 731 q 64 839 64 800 q 112 985 64 928 q 232 1043 159 1043 q 298 1017 270 1043 q 349 936 327 991 l 392 1050 m 195 0 l 229 0 l 227 -58 q 317 -118 290 -87 q 345 -195 345 -149 q 313 -266 345 -237 q 233 -296 281 -296 q 148 -256 178 -296 q 117 -143 118 -217 l 170 -143 q 183 -239 170 -210 q 228 -268 197 -268 q 271 -243 254 -268 q 288 -179 288 -218 q 267 -122 288 -146 q 192 -66 247 -98 l 195 0 z "},"ş":{"ha":396,"x_min":35,"x_max":370,"o":"m 336 745 l 336 471 q 283 658 315 597 q 208 718 252 718 q 145 689 168 718 q 123 606 123 660 q 273 377 123 489 q 282 371 279 373 q 348 291 327 337 q 370 179 370 244 q 326 40 370 92 q 211 -12 283 -12 q 129 22 165 -12 q 61 129 92 56 l 35 0 l 35 330 q 108 101 63 182 q 207 21 153 21 q 272 56 253 21 q 292 176 292 92 q 272 306 292 260 q 205 385 252 352 q 201 388 204 386 q 56 604 56 491 q 95 708 56 667 q 196 749 135 749 q 262 727 237 749 q 313 652 288 706 l 336 745 m 168 0 l 203 0 l 200 -58 q 291 -118 264 -87 q 318 -195 318 -149 q 286 -266 318 -237 q 207 -296 254 -296 q 122 -256 152 -296 q 91 -143 92 -217 l 143 -143 q 157 -239 143 -210 q 201 -268 171 -268 q 244 -243 227 -268 q 261 -179 261 -218 q 241 -122 261 -146 q 165 -66 220 -98 l 168 0 z "},"Ć":{"ha":454,"x_min":40,"x_max":425,"o":"m 351 411 l 425 411 q 362 107 418 224 q 229 -9 307 -9 q 95 137 151 -9 q 40 513 40 283 q 101 892 40 741 q 244 1043 161 1043 q 316 1013 286 1043 q 366 925 347 983 l 408 1023 l 408 693 q 335 937 376 858 q 243 1017 294 1017 q 154 882 182 1017 q 126 443 126 747 q 151 118 126 216 q 232 20 176 20 q 318 104 284 20 q 351 325 351 189 l 351 411 m 407 1243 l 225 1108 l 288 1243 l 407 1243 z "},"ć":{"ha":403,"x_min":36,"x_max":378,"o":"m 300 285 l 378 285 q 323 62 363 137 q 216 -12 282 -12 q 85 88 135 -12 q 36 359 36 189 q 88 641 36 533 q 221 749 140 749 q 281 720 254 749 q 330 636 309 692 l 357 758 l 357 429 q 298 640 335 566 q 216 714 262 714 q 142 619 168 714 q 117 346 117 524 q 141 101 117 178 q 218 24 165 24 q 282 72 264 24 q 300 258 300 119 l 300 285 m 374 954 l 192 819 l 254 954 l 374 954 z "},"Č":{"ha":454,"x_min":40,"x_max":425,"o":"m 351 411 l 425 411 q 362 107 418 224 q 229 -9 307 -9 q 95 137 151 -9 q 40 513 40 283 q 101 892 40 741 q 244 1043 161 1043 q 316 1013 286 1043 q 366 925 347 983 l 408 1023 l 408 693 q 335 937 376 858 q 243 1017 294 1017 q 154 882 182 1017 q 126 443 126 747 q 151 118 126 216 q 232 20 176 20 q 318 104 284 20 q 351 325 351 189 l 351 411 m 371 1265 l 283 1128 l 216 1128 l 134 1265 l 250 1203 l 371 1265 z "},"č":{"ha":403,"x_min":36,"x_max":378,"o":"m 300 285 l 378 285 q 323 62 363 137 q 216 -12 282 -12 q 85 88 135 -12 q 36 359 36 189 q 88 641 36 533 q 221 749 140 749 q 281 720 254 749 q 330 636 309 692 l 357 758 l 357 429 q 298 640 335 566 q 216 714 262 714 q 142 619 168 714 q 117 346 117 524 q 141 101 117 178 q 218 24 165 24 q 282 72 264 24 q 300 258 300 119 l 300 285 m 338 977 l 250 839 l 182 839 l 100 977 l 217 914 l 338 977 z "},"đ":{"ha":490,"x_min":36,"x_max":492,"o":"m 343 387 q 306 619 343 524 q 220 714 268 714 q 142 626 169 714 q 115 374 115 538 q 138 98 115 173 q 215 24 160 24 q 306 125 269 24 q 343 387 343 227 m 485 0 l 358 0 l 351 210 q 293 43 328 98 q 211 -12 258 -12 q 84 90 132 -12 q 36 366 36 191 q 87 641 36 534 q 214 749 139 749 q 281 712 252 749 q 332 602 310 675 l 321 825 l 212 825 l 203 851 l 321 851 l 313 1032 l 485 1032 l 393 979 l 393 851 l 492 851 l 485 825 l 393 825 l 393 57 l 485 0 z "},"¯":{"ha":694,"x_min":0,"x_max":694,"o":"m 0 1061 l 694 1061 l 694 1006 l 0 1006 l 0 1061 z "},"­":{"ha":387,"x_min":57,"x_max":330,"o":"m 330 452 l 319 376 l 82 392 l 57 429 l 330 452 z "},"∙":{"ha":221,"x_min":32,"x_max":189,"o":"m 110 436 q 166 421 144 436 q 189 386 189 407 q 166 351 189 366 q 110 336 144 336 q 54 351 75 336 q 32 386 32 365 q 54 421 32 407 q 110 436 76 436 z "},"¤":{"ha":728,"x_min":47,"x_max":681,"o":"m 366 668 q 250 610 291 668 q 210 444 210 551 q 250 279 210 337 q 366 221 291 221 q 480 279 439 221 q 521 444 521 338 q 480 610 521 551 q 366 668 439 668 m 187 602 l 47 742 l 68 761 l 204 625 q 274 681 232 661 q 366 700 316 700 q 454 681 413 700 q 525 628 495 663 l 660 762 l 681 742 l 542 603 q 575 530 564 569 q 586 446 586 490 q 575 361 586 401 q 542 288 564 321 l 681 150 l 660 129 l 525 264 q 454 210 496 229 q 366 191 413 191 q 275 210 317 191 q 204 267 233 230 l 68 131 l 47 150 l 187 290 q 155 365 166 326 q 144 446 144 404 q 155 527 144 488 q 187 602 166 566 z "}}}
